<?xml version="1.0" encoding="utf-8"?>
<!-- Generator: Adobe Illustrator 17.0.2, SVG Export Plug-In . SVG Version: 6.00 Build 0)  -->
<!DOCTYPE svg PUBLIC "-//W3C//DTD SVG 1.1//EN" "http://www.w3.org/Graphics/SVG/1.1/DTD/svg11.dtd">
<svg version="1.1" xmlns="http://www.w3.org/2000/svg" xmlns:xlink="http://www.w3.org/1999/xlink" x="0px" y="0px" width="77px"
	 height="77px" viewBox="0 0 77 77" enable-background="new 0 0 77 77" xml:space="preserve">
<g id="Layer_1">
	<path fill="none" stroke="#000000" stroke-width="2" stroke-miterlimit="10" d="M38.5,11.712
		c-14.794,0-26.788,11.993-26.788,26.788S23.706,65.288,38.5,65.288S65.288,53.294,65.288,38.5S53.294,11.712,38.5,11.712z"/>
</g>
<g id="Layer_2">
	<g>
		<path d="M36.015,41.707c0-1.732,0.466-2.832,2.465-4.03c1.766-1.066,3.164-1.932,3.164-4.23c0-2.532-1.599-3.664-4.097-3.664
			c-0.833,0-1.866,0.266-2.731,0.699l-0.899-1.932c1.199-0.6,2.565-0.899,3.797-0.899c4.296,0,6.529,2.398,6.529,5.663
			c0,3.498-2.599,5.03-4.197,5.962c-1.333,0.8-1.666,1.399-1.666,2.698v1.832h-2.365V41.707z M35.348,48.603
			c0-1.033,0.866-1.865,1.899-1.865c1.032,0,1.898,0.832,1.898,1.865c0,1.065-0.866,1.898-1.898,1.898
			C36.214,50.501,35.348,49.668,35.348,48.603z"/>
	</g>
</g>
</svg>
