<?xml version="1.0" encoding="utf-8"?>
<!-- Generator: Adobe Illustrator 16.0.0, SVG Export Plug-In . SVG Version: 6.00 Build 0)  -->
<!DOCTYPE svg PUBLIC "-//W3C//DTD SVG 1.1//EN" "http://www.w3.org/Graphics/SVG/1.1/DTD/svg11.dtd">
<svg version="1.1" id="Layer_4" xmlns="http://www.w3.org/2000/svg" xmlns:xlink="http://www.w3.org/1999/xlink" x="0px" y="0px"
	 width="1000px" height="1000px" viewBox="0 0 1000 1000" enable-background="new 0 0 1000 1000" xml:space="preserve">
<g>
	
		<path fill-rule="evenodd" clip-rule="evenodd" fill="none" stroke="#002700" stroke-width="4" stroke-linecap="round" stroke-linejoin="round" stroke-miterlimit="3" d="
		M482.18,744.062c0,1.919,1.2,15.86,3.601,41.819c2.399,25.961,3.6,46.42,3.6,61.381 M542.18,741.662
		c2.602,9.88,4.561,24.28,5.881,43.2c0.881,13.12,1.32,25.12,1.32,36 M575.781,732.062v36 M508.58,748.862
		c0,3.24,1.201,24.159,3.6,62.76c0.914,14.676,1.652,27.815,2.221,39.42c0.92,18.92,1.381,33.76,1.381,44.521"/>
	<g>
		<path fill-rule="evenodd" clip-rule="evenodd" fill="#DBFF9C" d="M623.961,376.982c-0.041-0.32-0.061-0.64-0.061-0.96
			c-0.199-2.72-0.301-4.5-0.301-5.34c0.4-4.16,0.201-8.2-0.6-12.12c-0.238-1.24-0.539-2.38-0.9-3.42
			c-0.238,0.04-0.479,0.08-0.719,0.12c0.801-0.16,1.619-0.3,2.459-0.42c-0.039-0.04-0.059-0.081-0.059-0.12
			c1.479,2.12,2.219,5.899,2.219,11.34C626,370.342,625.32,373.982,623.961,376.982z M507.5,310.802
			c-1.279,0.04-1.979,0.061-2.1,0.061c-0.881,0-1.74-0.041-2.58-0.12C504.621,309.302,506.18,309.322,507.5,310.802z"/>
		<path fill-rule="evenodd" clip-rule="evenodd" fill="#669900" d="M358.4,286.682c-0.12-0.76-0.22-1.52-0.3-2.28
			c-0.08-0.44-0.18-0.94-0.3-1.5c-0.399-1.92-0.6-3.399-0.6-4.439c0-0.4,0-0.781,0-1.141c-6.92,0.16-12.739-2.74-17.459-8.7
			c-5.16-6.52-7.74-15.24-7.74-26.16c0-6.88,1.74-12.28,5.221-16.2c3.479-3.96,7.739-5.36,12.779-4.2
			c-4.24-8.16-3.22-15.12,3.06-20.88c5.761-5.28,13.74-7.919,23.94-7.919c5.2,0,8.2,0.399,9,1.2v1.2c1-3.64,1.14-7.38,0.42-11.22
			c-1.32-7.16-1-14.2,0.96-21.12c0.759-2.64,2.36-4.58,4.8-5.82c8.56-4.28,17.68-5.12,27.36-2.52
			c4.081-8.12,10.121-15.08,18.12-20.88c7.4-5.36,13.581-8.04,18.54-8.04c3.84,0,7.56,1.88,11.16,5.64
			c3.36,3.561,5.04,6.88,5.04,9.96c1.08-1.04,1.94-2.24,2.58-3.6c3.68-7.48,8.26-14.38,13.74-20.7c2.6-3,5.44-5.741,8.52-8.22
			c5.282-4.28,11.02-5.64,17.221-4.08c1.439,0.36,2.879,0.56,4.32,0.6c11.359,0.2,20.959,4.14,28.799,11.82
			c7.4,7.32,9.141,15.78,5.221,25.38c3,0,8.699-1.8,17.1-5.4c8.4-3.6,14.9-5.4,19.5-5.4c16.4,0,28.621,4.02,36.66,12.06
			c6.359,6.32,9.539,14.3,9.539,23.94c0,6.96-1.34,11.48-4.02,13.56c-1.68,1.04-2.98,1.94-3.9,2.7
			c-1.559,1.28-2.879,3.02-3.959,5.22c19.16-2.36,33.279,1.4,42.359,11.28c7.682,8.32,11.52,20.6,11.52,36.84
			c0,5.52-0.18,9.22-0.539,11.1c-0.439,2.28-1.42,3.8-2.939,4.56c-1.121,0.561-3.521,1.06-7.201,1.5
			c-5.359,0.64-9.799,1.32-13.32,2.041H652.4c8.201,2.2,13.561,4.72,16.08,7.56c2.08,2.32,3.119,6.2,3.119,11.64
			c0,6.16-2.799,10.98-8.4,14.46c-3.838,2.36-7.238,3.54-10.199,3.54c-3.641,0-6-0.08-7.08-0.24c-2.039-0.359-3.84-0.939-5.398-1.74
			c3.998,3.681,7.398,7.96,10.199,12.84c3.52,6.16,5.279,11.74,5.279,16.74c0,10.919-4.379,18.54-13.139,22.86
			c-4.801,2.36-10.221,3.54-16.262,3.54c-0.479,0-0.939,0-1.379,0c-4.279,0-6.701-0.08-7.26-0.24c-1.561-0.44-2.881-1.96-3.961-4.56
			h-1.199c3.4,4.4,6.879,8,10.439,10.8c0.039,0.04,0.08,0.08,0.121,0.12c0.119,0.12,0.219,0.26,0.299,0.42
			c0.041,0.04,0.08,0.08,0.121,0.12c0,0.04,0.02,0.08,0.059,0.12c-0.84,0.12-1.658,0.26-2.459,0.42c0.24-0.041,0.48-0.08,0.719-0.12
			c0.361,1.04,0.662,2.18,0.9,3.42c0.801,3.92,1,7.96,0.6,12.12c0,0.84,0.102,2.621,0.301,5.34c0,0.32,0.02,0.64,0.061,0.96v0.06
			c-0.16,0.32-0.342,0.64-0.541,0.96c-1.238,2.28-2.9,4.16-4.98,5.64c-0.119,0.04-0.219,0.1-0.299,0.18
			c-0.08,0.04-0.16,0.101-0.24,0.18c-0.08,0.04-0.16,0.08-0.24,0.12c-3.84,2.36-9.26,3.54-16.26,3.54c-3.84,0-8.34-1.34-13.5-4.02
			c-1.119-0.6-2.121-1.16-3-1.68c-0.24-0.16-0.439-0.3-0.6-0.42c-0.561-0.8-1.041-1.66-1.439-2.58c-0.16-0.36-0.32-0.74-0.48-1.141
			c-0.201-0.56-1.781-2.24-4.74-5.04c-3.199-3-5.299-5.28-6.301-6.84c-1.16-1.84-1.939-3.38-2.34-4.62
			c-0.238-1.28-0.459-2.28-0.66-3c-0.561-2.12-1.059-3.52-1.5-4.2c-0.439-0.68-0.799-2.3-1.078-4.86
			c-0.32-2.601,1.539-6.76,5.578-12.48c3.24-0.48,6.301-1.24,9.182-2.28c1.318-0.48,2.598-1.02,3.84-1.62
			c6-2.92,10.078-7.06,12.238-12.419c1.201-3,1.801-6.4,1.801-10.2c0-15.76-2.801-24.76-8.4-27c5.6,2.24,8.4,11.24,8.4,27
			c0,3.8-0.6,7.2-1.801,10.2c-2.16,5.359-6.238,9.5-12.238,12.419c-1.242,0.6-2.521,1.14-3.84,1.62
			c-2.881,1.04-5.941,1.8-9.182,2.28c-1-1.2-4.879-1.88-11.641-2.04c-6.758-0.201-10.918-5.24-12.479-15.12
			c0.76-0.88,1.42-1.8,1.979-2.76c-0.559,0.959-1.219,1.879-1.979,2.76c-0.801,0.84-1.701,1.64-2.699,2.4
			c-0.68,0.52-1.381,0.98-2.102,1.38c-3.6,2.04-8.139,3.061-13.619,3.061c-3.76,0-7.621-0.74-11.58-2.22
			c-0.121-0.04-0.24-0.081-0.359-0.12c-4.041-1.52-6.061-2.94-6.061-4.26c0-1.04,0.82-3.46,2.461-7.26
			c0.559-1.32,1.078-2.46,1.559-3.42c-0.48,0.96-1,2.1-1.559,3.42c-1.641,3.8-2.461,6.22-2.461,7.26c0,1.319,2.02,2.74,6.061,4.26
			c0.119,0.04,0.238,0.08,0.359,0.12c-6.561,0.04-8.6-1.98-6.121-6.061c1.361-4.28,1.641-6.859,0.84-7.74
			c1.281-0.28,2.242-0.7,2.881-1.26c0.48-0.44,0.74-0.94,0.779-1.5c-0.039,0.56-0.299,1.06-0.779,1.5
			c-0.639,0.56-1.6,0.98-2.881,1.26c-0.359,0.08-0.719,0.14-1.078,0.18c-1.4,0.08-2.521,0.14-3.361,0.18
			c-1.32-1.48-2.879-1.5-4.68-0.06h-0.059c-4.202-0.48-7.902-2.041-11.102-4.68c-0.64-0.52-1.22-1.08-1.739-1.68
			c-3.681-3.879-5.521-9.12-5.521-15.72c0-6.56,1.24-11.44,3.721-14.64c1.039-1.36,4.999-4.68,11.879-9.96
			c-6.88,5.28-10.84,8.6-11.879,9.96c-2.48,3.2-3.721,8.08-3.721,14.64c0,6.6,1.84,11.84,5.521,15.72
			c-1.32-0.44-2.64-0.84-3.961-1.2c-6.399-1.759-9.68,2.18-9.839,11.82c-0.16,9.64-3.761,15.08-10.8,16.32
			c0.92-0.72,1.8-1.52,2.639-2.4c5.12-5.24,7.8-12.06,8.04-20.459c-0.24,8.4-2.92,15.22-8.04,20.459
			c-0.839,0.88-1.719,1.68-2.639,2.4c-9,1.56-20.181,2.34-33.541,2.34c-6.8,0-13.12-0.34-18.959-1.02h-0.061
			c-0.72-0.36-1.379-0.72-1.979-1.08l-4.8-3.96c-1.001-1.12-2.021-2.521-3.06-4.2c-0.321-0.56-0.6-1.02-0.84-1.38
			c-0.48-0.76-0.84-1.24-1.081-1.44c-0.08-0.08-1.54,0.221-4.379,0.9c-3.161,0.76-5.481,1.04-6.961,0.84
			c-6.28-0.76-12.58-4.66-18.9-11.7c-6.56-7.24-10.66-15.16-12.3-23.76C358.421,286.785,358.401,286.725,358.4,286.682z
			 M612.561,539.462c0.041,0,0.08-0.021,0.119-0.061c0.121-0.08,0.24-0.159,0.361-0.239c0.68-0.48,1.26-0.899,1.74-1.261
			l1.799-1.319c0.041,0.079,0.1,0.159,0.182,0.24c0.799,0.999,1.939,1.5,3.418,1.5c2.08,0,3.961-0.88,5.641-2.641
			c1.4-1.479,2.1-2.739,2.1-3.78c0,1.041-0.699,2.301-2.1,3.78c-1.68,1.761-3.561,2.641-5.641,2.641c-1.479,0-2.619-0.501-3.418-1.5
			c-0.082-0.081-0.141-0.161-0.182-0.24l-0.66-1.081c-0.119-0.279-0.24-0.58-0.359-0.899c-0.32-0.32-0.641-0.64-0.961-0.96
			c-0.398-0.359-0.799-0.66-1.199-0.9l0.299-0.359c0.121-0.2,0.24-0.38,0.361-0.54c0.16-0.28,0.32-0.58,0.48-0.9
			c0.279,1.44,0.619,2.66,1.02,3.66c-0.4-1-0.74-2.22-1.02-3.66c0.4-0.96,0.619-2.04,0.658-3.24v-0.06c0-0.159,0-0.32,0-0.479
			c0-0.6-0.039-1.18-0.119-1.74c-0.16-0.8-0.42-1.56-0.779-2.28c-0.16-0.28-0.301-0.521-0.42-0.72c0.119-0.2,0.26-0.4,0.42-0.6
			c0.68-0.92,1.199-1.82,1.561-2.7c0.359-0.96,0.539-1.881,0.539-2.76c0-0.081,0-0.16,0-0.24c-0.041-2.561-1.039-4.721-3-6.48
			c-0.559-0.521-1.16-0.939-1.801-1.26c-0.52-1.44-0.779-2.819-0.779-4.141c0-2.52,0.9-4.499,2.701-5.939
			c1.479-1.2,3.119-1.8,4.918-1.8c1.201,0,2.141,0.221,2.822,0.66c0.518,0.36,1.139,1.08,1.859,2.16
			c1.68-1.881,3.459-4.08,5.34-6.601c1.398-1.6,3.02-2.399,4.859-2.399c3.08,0,5.621,0.96,7.619,2.88
			c1.801,1.72,2.701,3.68,2.701,5.88c0,1.279-0.199,2.299-0.6,3.059c-0.361,0.399-0.602,0.699-0.721,0.9
			c-0.801-0.04-1.6,0.279-2.4,0.959c-1.16,0.961-1.859,2.36-2.1,4.2c0.24-1.84,0.939-3.239,2.1-4.2c0.801-0.68,1.6-0.999,2.4-0.959
			c-0.08,0.079-0.141,0.141-0.18,0.18c0.199,0,0.4,0.021,0.6,0.061c2.201,0.119,4.602,0.1,7.199-0.061
			c1.961,0.12,3.762,1.02,5.4,2.7c1.922,1.96,2.881,4.48,2.881,7.56c0,2.681-1,4.66-3,5.94c-0.84,0.52-1.641,0.86-2.4,1.02v1.56
			l1.32,2.521c0.6,1.199,0.9,2.66,0.9,4.379c0,2.561-0.92,4.98-2.76,7.261c-2.24,2.84-5.021,3.819-8.342,2.939l-0.959-0.06
			c-0.16,0.999-0.439,1.92-0.84,2.76c-1.039,2.08-2.76,3.12-5.16,3.12c-2.641,0-4.34-0.319-5.1-0.96
			c-0.721-1-1.541-1.92-2.461-2.761c0.16,1.48-0.459,2.841-1.859,4.081c-1.359,1.279-2.881,1.919-4.561,1.919
			c-1.6,0-3-0.359-4.199-1.079c-0.801-0.48-1.66-1.22-2.58-2.221c-1.92-2.08-3.102-3.499-3.541-4.26
			C612.641,539.562,612.602,539.502,612.561,539.462z M623.721,189.542c-0.441,0.04-0.881,0.08-1.32,0.12h1.199
			C623.641,189.622,623.682,189.583,623.721,189.542z M419.54,154.982c2.041,0.44,3.7,1.04,4.98,1.8
			c3.6,2.121,6.36,6.68,8.279,13.681l0.6,0.18c0.399,0.2,0.6,0.54,0.6,1.02c0-0.48-0.201-0.82-0.6-1.02l-0.6-0.18
			c-1.919-7-4.679-11.56-8.279-13.681C423.24,156.022,421.581,155.422,419.54,154.982z M428,192.062c-2.8,3.16-4.979,5.9-6.541,8.22
			c-2.839,4.32-4.26,8.98-4.26,13.98c0,6.04,0.92,9.6,2.76,10.68c1.24,0.72,3.92,1.36,8.041,1.92c-0.8,1.6-1.2,4.8-1.2,9.6
			c0,3.8,2,7,6,9.6c3.761,2.4,8.16,3.6,13.2,3.6c2.561,0,4.12-0.2,4.68-0.6c0.439-0.36,1.28-1.36,2.52-3
			c-1.24,1.64-2.08,2.64-2.52,3c-0.56,0.4-2.12,0.6-4.68,0.6c-5.041,0-9.439-1.2-13.2-3.6c-4-2.6-6-5.8-6-9.6c0-4.8,0.4-8,1.2-9.6
			c-4.121-0.56-6.8-1.2-8.041-1.92c-1.84-1.08-2.76-4.64-2.76-10.68c0-5,1.42-9.66,4.26-13.98
			C423.021,197.962,425.2,195.223,428,192.062z M402.081,322.022c-0.88-2.24-1.78-5.1-2.7-8.58c-1.36-5.16-1.82-8.82-1.38-10.979
			c-0.439,2.16,0.02,5.819,1.38,10.979C400.3,316.922,401.2,319.782,402.081,322.022z M358.4,270.062
			c-0.521,1.08-0.86,2.4-1.02,3.96c-0.081,0.76-0.141,1.86-0.181,3.3c0.04-1.44,0.1-2.54,0.181-3.3
			C357.54,272.463,357.879,271.143,358.4,270.062z M385.459,472.443c-0.959,1.92-2.36,3.52-4.2,4.8c-2.72,1.88-5.939,2.82-9.66,2.82
			c-3.801,0-5.98-0.341-6.541-1.021c-0.88-2.12-2.299-4.58-4.26-7.38v-1.2c-0.439,4.12-2,6.521-4.679,7.2H347.6
			c-7.68,0-13.66-1.98-17.94-5.94c-4.84-4.479-7.26-11.3-7.26-20.459c0-2.641,0.92-4.94,2.76-6.9c2-2.2,4.281-2.7,6.84-1.5
			l0.6,0.239c0.399-0.12,0.6-0.8,0.6-2.039c0-1.521-1.2-5.101-3.6-10.74c-2.4-5.68-3.6-9.5-3.6-11.46c0-4,2.02-7.98,6.06-11.94
			c3.24-3.24,5.42-4.86,6.541-4.86c4,0,6.6,2.4,7.8,7.2h1.2c0-0.08-0.02-0.16-0.06-0.24c-2.12-9.64-1.12-16.82,3-21.54
			c3.36-3.88,8.38-5.82,15.06-5.82c5.799,0,9.359,1.16,10.68,3.48c1.04,1.76,1.78,6.08,2.22,12.96c0.88-0.4,2.3-1.06,4.26-1.98
			c1.72-0.84,3-1.26,3.84-1.26c3.08,0,5.28,2,6.6,6c0.801,2.4,1.2,5,1.2,7.8c0,4.16-0.12,6.44-0.36,6.84
			c-0.56,0.88-2.84,1.6-6.84,2.16c3.36,1.28,5.7,2.62,7.021,4.02c1.719,1.841,2.579,4.5,2.579,7.98c0,1.76-0.179,3.2-0.54,4.32
			c-0.4,1.081-1,2.06-1.8,2.94l1.141,1.141c0.92,0.6,1.82,1.18,2.7,1.739c-1.639,0.801-4.44,1.54-8.4,2.221
			c1.12,0.72,2.021,2.18,2.7,4.38c0.68,2.359,0.78,4.58,0.3,6.66c-0.521,2.24-1.659,4.18-3.419,5.819
			c-1.881,1.721-3.94,2.58-6.181,2.58c1.641,0.48,2.621,1.18,2.94,2.101c0.439,1.359,0.739,2.12,0.9,2.279
			c0,0.2-0.02,0.4-0.06,0.601c-0.04,0.04-0.081,0.1-0.121,0.18c-0.28,0.16-0.379,1-0.3,2.521c-0.04,0.12-0.06,0.239-0.06,0.359
			c4.24,2.641,6.34,3.98,6.3,4.021c-1.04-0.4-2.06-0.761-3.06-1.08c-0.4-0.12-0.801-0.24-1.2-0.36c-0.28-0.08-0.54-0.16-0.78-0.24
			c-0.64-0.52-1.18-0.92-1.62-1.199c0.12-0.32,0.22-0.641,0.3-0.961c0-0.079,0.02-0.14,0.06-0.18c-0.04,0.04-0.06,0.101-0.06,0.18
			c-0.08,0.32-0.18,0.641-0.3,0.961c-0.08,0.279-0.181,0.56-0.3,0.839c-0.76-0.119-1.02,0.041-0.78,0.48
			C385.241,472.123,385.34,472.283,385.459,472.443z M377.6,398.463c0.16-0.041,0.46-0.16,0.9-0.36c0.121,1.92,0.22,4.04,0.3,6.36
			c-0.08-2.32-0.179-4.44-0.3-6.36C378.061,398.303,377.76,398.422,377.6,398.463z M345.68,431.763c-0.28,4.44,1.08,8,4.08,10.68
			c2.521,2.279,5.5,3.42,8.94,3.42c3.441,0,5.76-0.78,6.96-2.34c0.88-1.12,1.321-3.04,1.321-5.76c0,2.72-0.441,4.64-1.321,5.76
			c-1.2,1.56-3.519,2.34-6.96,2.34c-3.439,0-6.419-1.141-8.94-3.42C346.76,439.762,345.4,436.203,345.68,431.763z M410.78,331.562
			c0.64,0.36,1.32,0.72,2.041,1.08C412.1,332.282,411.42,331.922,410.78,331.562z M394.459,436.922
			c-0.359,0.4-0.779,0.78-1.26,1.141C393.68,437.703,394.1,437.323,394.459,436.922z M640.521,292.082
			c-1.561-1.439-3.201-2.779-4.922-4.02l1.201,1.2C637.881,290.382,639.121,291.322,640.521,292.082z M515.6,307.682
			c0.281-0.48,0.521-0.859,0.721-1.14l-0.721,0.72C515.6,307.382,515.6,307.522,515.6,307.682z M623.961,376.982
			c-0.201,0.36-0.381,0.7-0.541,1.02C623.58,377.683,623.76,377.343,623.961,376.982z M642.98,539.042
			c0.039-0.479,0.061-0.96,0.061-1.44c0-1.359-0.041-2.14-0.121-2.339c0.08,0.199,0.121,0.979,0.121,2.339
			C643.041,538.082,643.02,538.562,642.98,539.042z M652.82,520.441c-0.801,0.121-1.559,0.08-2.279-0.119
			C651.262,520.521,652.02,520.562,652.82,520.441z"/>
		<path fill-rule="evenodd" clip-rule="evenodd" fill="#DFFF8D" d="M602.9,544.562c0.16-0.081,0.299-0.141,0.42-0.181
			c-0.121,0.08-0.24,0.14-0.359,0.181H602.9z"/>
		<path fill-rule="evenodd" clip-rule="evenodd" fill="#6D9900" d="M412.821,332.643c5.839,0.68,12.159,1.02,18.959,1.02
			c13.359,0,24.541-0.78,33.541-2.34c-5.4,4.08-12.26,5.76-20.581,5.041c-4.56,0.399-9.6,0.419-15.12,0.06
			C422.78,336.022,417.18,334.763,412.821,332.643z"/>
		<path fill-rule="evenodd" clip-rule="evenodd" fill="#88B400" d="M616.4,516.122c-0.92-1.001-1.641-1.921-2.16-2.76
			c-0.799-1.241-1.42-2.32-1.859-3.24c-0.281-0.6-0.541-1.18-0.781-1.74c0.641,0.32,1.242,0.739,1.801,1.26
			C615.361,511.401,616.359,513.562,616.4,516.122z"/>
		<path fill-rule="evenodd" clip-rule="evenodd" fill="#FFFFFF" d="M520.461,475.263c1.561,2.199,2.34,4.8,2.34,7.8
			c0,1.04-1,2.76-3,5.159c-2.16,2.561-4.781,5.041-7.861,7.44c-8.119,6.399-15.699,9.6-22.74,9.6c-7.88,0-13.88-1.602-18-4.801
			c-4-3.08-6-7.16-6-12.24c0-5.119,2.94-7.3,8.821-6.54c5.839,0.76,10.6,0.681,14.279-0.239c3.64-0.961,8.159-2.761,13.561-5.4
			c5.959-2.92,9.939-4.38,11.939-4.38C516.52,471.663,518.74,472.863,520.461,475.263z"/>
		<path fill-rule="evenodd" clip-rule="evenodd" fill="#96B443" d="M584.9,381.963c-0.641-0.4-1.221-0.781-1.74-1.141
			c-1.279-0.92-2.279-1.78-3-2.58c-0.041,2.32-0.041,4.66,0,7.02c0,43.12,0.859,86.24,2.58,129.359c6.48-0.04,12.18-0.16,17.1-0.359
			c6-0.201,10.801-0.501,14.4-0.9c0.52,0.839,1.24,1.759,2.16,2.76c0,0.08,0,0.159,0,0.24c0,0.879-0.18,1.8-0.539,2.76
			c-0.361,0.88-0.881,1.78-1.561,2.7c-0.16,0.199-0.301,0.399-0.42,0.6c0.119,0.199,0.26,0.439,0.42,0.72
			c0.359,0.721,0.619,1.48,0.779,2.28c0.08,0.561,0.119,1.141,0.119,1.74c0,0.159,0,0.32,0,0.479v0.06
			c-0.039,1.2-0.258,2.28-0.658,3.24c-0.16,0.32-0.32,0.62-0.48,0.9c-0.121,0.16-0.24,0.34-0.361,0.54l-0.299,0.359
			c0.4,0.24,0.801,0.541,1.199,0.9c0.32,0.32,0.641,0.64,0.961,0.96c0.119,0.319,0.24,0.62,0.359,0.899l0.66,1.081l-1.381,0.899
			c-0.119,0.12-0.258,0.261-0.418,0.42l-2.102,1.5c-0.039,0.04-0.078,0.061-0.119,0.061c-0.961,0.601-2.119,1.28-3.48,2.039
			l-5.459,2.762l-0.182,0.06l-0.119,0.06c-0.121,0.04-0.26,0.1-0.42,0.181c-0.92,0.439-1.9,0.899-2.939,1.379
			c-0.32,0.161-0.641,0.32-0.961,0.48c-1.92,0.841-3.84,1.659-5.76,2.46c-2.961,1.2-5.898,2.301-8.82,3.3
			c0.92,18.28,2,36.58,3.24,54.9c-0.041,0.359-0.041,0.8,0,1.32c0.08,4.48,0.66,15.239,1.74,32.279
			c1.199,19.12,1.799,30.32,1.799,33.601c-1.559,3.68-3.318,7.021-5.279,10.021l-0.721-0.421l-7.619,2.58
			c0.439,1.32,0.801,2.36,1.08,3.12v0.06l-7.859,2.641c-0.361-0.4-0.779-1.16-1.26-2.279c-0.68-1.641-1.5-4.041-2.461-7.2
			c-1.279-4.36-2.039-7.2-2.279-8.521c0.24,1.32,1,4.16,2.279,8.521c0.961,3.159,1.781,5.56,2.461,7.2
			c0.48,1.119,0.898,1.879,1.26,2.279l0.48,1.859c-0.641,0.16-1.6,0.421-2.881,0.78c-3.199,0.88-4.939,1.36-5.221,1.44
			c-1.16,0.28-2.32,1.02-3.48,2.22c-0.199,0.2-0.439,0.38-0.719,0.54c-0.08,0.04-0.16,0.1-0.24,0.181c-0.08,0-0.16,0.02-0.24,0.06
			s-0.16,0.08-0.238,0.119c-1.002,0.32-2.361,0.48-4.082,0.48c-7.84-0.959-13.08-1.859-15.719-2.699c0.039,1.439-0.82,2.439-2.58,3
			c-1.76,0.52-6.16,1.02-13.201,1.5l-1.08-1.081l0.781,2.28c-0.4,1-0.92,1.62-1.561,1.86c-0.359,0.16-1.301,0.24-2.82,0.24
			c-2.6,0-4.5-0.021-5.699-0.06c-3.52-0.161-6.461-0.541-8.82-1.141l-2.1-2.16l-0.24-0.24c-0.16-0.721-0.541-2.18-1.141-4.38
			c-0.719-2.36-1.72-5.6-3-9.72c-2.799-8.96-4.199-14.12-4.199-15.48c0,1.36,1.4,6.521,4.199,15.48c1.28,4.12,2.281,7.359,3,9.72
			l-10.56,2.94c-5.68-1.16-10.579-2.9-14.7-5.22c0.04-0.2-0.18-1.541-0.659-4.021c-0.04-0.08-0.06-0.14-0.06-0.18
			c-0.041-0.121-0.062-0.26-0.062-0.421l-1.739,0.3c-0.041,0.04-0.08,0.061-0.12,0.061l-3.42,0.66h-0.06l-1.74,0.36
			c-1.2,0.159-2.9-0.841-5.1-3c-0.081-0.08-0.141-0.141-0.18-0.181c-0.04-1.64-0.479-4.141-1.32-7.5
			c-0.121-0.479-0.24-0.939-0.36-1.379v-0.062c-0.921-3.399-1.561-5.919-1.92-7.56l-4.56,0.9c-1.4-7.24-2.74-14.78-4.02-22.62
			c-2.92-18.44-4.44-32.36-4.561-41.76c-0.04-0.44-0.04-0.88,0-1.32c-2.36-34.721-3.799-69.44-4.32-104.16
			c-6.8-2.12-13.58-4.879-20.34-8.279c-6.439-3.24-12.24-6.721-17.4-10.44c-2.799-2.04-6.08-4.72-9.84-8.04
			c-0.359-0.32-0.68-0.6-0.959-0.84c0.2-0.4-0.521-1.36-2.16-2.88c1,0.319,2.02,0.68,3.06,1.08c0.04-0.04-2.06-1.38-6.3-4.021
			c0-0.12,0.02-0.239,0.06-0.359c0.2-0.881,0.34-1.78,0.421-2.7c0.04-0.2,0.06-0.4,0.06-0.601c-0.161-0.159-0.46-0.92-0.9-2.279
			c-0.32-0.921-1.3-1.62-2.94-2.101c2.241,0,4.3-0.859,6.181-2.58c1.76-1.64,2.899-3.579,3.419-5.819c0.48-2.08,0.38-4.301-0.3-6.66
			c-0.68-2.2-1.58-3.66-2.7-4.38c3.96-0.681,6.761-1.42,8.4-2.221c1.121,0.721,2.2,1.38,3.24,1.98c4.2,2.6,7.2,4.359,9,5.28
			c7.52,3.84,17.42,6.46,29.7,7.859c0.04,0,0.08,0,0.12,0c0-0.28,0-0.56,0-0.84c0.32-39.24,1.78-78.48,4.38-117.72
			c8.32,0.719,15.18-0.96,20.581-5.041c7.039-1.24,10.64-6.68,10.8-16.32c0.159-9.64,3.439-13.58,9.839-11.82
			c1.321,0.36,2.641,0.76,3.961,1.2c0.52,0.6,1.1,1.16,1.739,1.68c3.2,2.64,6.9,4.2,11.102,4.68h0.059
			c0.84,0.08,1.699,0.12,2.58,0.12c0.121,0,0.82-0.021,2.1-0.061c0.84-0.04,1.961-0.1,3.361-0.18c0.359-0.04,0.719-0.1,1.078-0.18
			c0.801,0.88,0.521,3.46-0.84,7.74c-2.479,4.081-0.439,6.1,6.121,6.061c3.959,1.48,7.82,2.22,11.58,2.22
			c5.48,0,10.02-1.021,13.619-3.061c0.721-0.399,1.422-0.86,2.102-1.38c0.998-0.76,1.898-1.56,2.699-2.4
			c1.561,9.88,5.721,14.919,12.479,15.12c6.762,0.16,10.641,0.839,11.641,2.04c-2.479,0.32-5.061,0.48-7.74,0.48
			c2.68,0,5.262-0.16,7.74-0.48c-4.039,5.721-5.898,9.88-5.578,12.48c0.279,2.56,0.639,4.18,1.078,4.86
			c0.441,0.68,0.939,2.08,1.5,4.2c0.201,0.72,0.422,1.72,0.66,3c0.4,1.24,1.18,2.78,2.34,4.62c1.002,1.56,3.102,3.84,6.301,6.84
			c2.959,2.8,4.539,4.48,4.74,5.04c0.16,0.4,0.32,0.78,0.48,1.141c0.398,0.92,0.879,1.779,1.439,2.58
			C584.461,381.663,584.66,381.803,584.9,381.963z M574.4,676.682c1.32,4.12,2.359,7.36,3.121,9.721l0.059,0.06l-0.059-0.06
			C576.76,684.042,575.721,680.802,574.4,676.682z M537.199,695.763c0.24-2.281-0.279-6.461-1.559-12.541
			c-1.359-6.48-2.041-9.859-2.041-10.14c0,0.28,0.682,3.659,2.041,10.14C536.92,689.302,537.439,693.481,537.199,695.763z
			 M521.6,700.682c0-1.2-0.9-4.579-2.699-10.14c-2.199-6.56-3.699-11.18-4.5-13.86c0.801,2.681,2.301,7.301,4.5,13.86
			C520.699,696.103,521.6,699.481,521.6,700.682z M538.281,696.362c0.078,0.32,0.139,0.62,0.18,0.9
			C538.42,696.982,538.359,696.683,538.281,696.362z M557.6,697.082c0-0.88-0.738-4.3-2.219-10.26
			c-1.561-6.08-2.42-9.461-2.58-10.141c0.16,0.68,1.02,4.061,2.58,10.141C556.861,692.782,557.6,696.202,557.6,697.082z
			 M387.14,465.842c0.04-0.399,0.06-0.779,0.06-1.14C387.2,465.063,387.18,465.443,387.14,465.842z M472.521,375.663v48V375.663z
			 M509.721,372.062v55.2V372.062z M580.16,378.243c-0.4-0.48-0.721-0.94-0.961-1.38C579.439,377.303,579.76,377.763,580.16,378.243
			z M520.461,475.263c-1.721-2.4-3.941-3.601-6.66-3.601c-2,0-5.98,1.46-11.939,4.38c-5.402,2.64-9.921,4.439-13.561,5.4
			c-3.68,0.92-8.44,0.999-14.279,0.239c-5.881-0.76-8.821,1.421-8.821,6.54c0,5.08,2,9.16,6,12.24c4.12,3.199,10.12,4.801,18,4.801
			c7.041,0,14.621-3.201,22.74-9.6c3.08-2.399,5.701-4.88,7.861-7.44c2-2.399,3-4.119,3-5.159
			C522.801,480.063,522.021,477.462,520.461,475.263z M585.199,683.882c0-0.799-0.398-2.6-1.199-5.4
			c-0.799-2.799-1.199-4.6-1.199-5.399c0,0.8,0.4,2.601,1.199,5.399C584.801,681.282,585.199,683.083,585.199,683.882z
			 M570.801,514.682c4.24,0,8.221-0.02,11.939-0.06C579.021,514.662,575.041,514.682,570.801,514.682z M567.199,556.682
			c5.641-1.04,11.381-2.54,17.221-4.5C578.58,554.142,572.84,555.642,567.199,556.682z M440.36,454.083
			c0.081,2.399,0.22,5.3,0.42,8.7C440.58,459.382,440.44,456.482,440.36,454.083z M386.66,469.143c-0.08-1.521,0.02-2.36,0.3-2.521
			c0.04-0.08,0.081-0.14,0.121-0.18C387,467.363,386.86,468.262,386.66,469.143z M473.959,690.182v-0.06
			c-0.319-1.48-0.72-3.34-1.2-5.58c-0.92-4.48-1.438-7.92-1.56-10.32c-0.119-0.64-0.24-1.36-0.359-2.159
			c-0.28-1.8-0.561-4.061-0.84-6.78c-0.4-4-0.8-7-1.2-9c0.4,2,0.8,5,1.2,9c0.28,2.72,0.56,4.98,0.84,6.78
			c0.119,0.799,0.24,1.52,0.359,2.159c0.121,2.4,0.64,5.84,1.56,10.32c0.48,2.24,0.881,4.1,1.2,5.58V690.182z"/>
		
			<path fill-rule="evenodd" clip-rule="evenodd" fill="none" stroke="#002700" stroke-width="4" stroke-linecap="round" stroke-linejoin="round" stroke-miterlimit="3" d="
			M358.4,286.682c-0.12-0.76-0.22-1.52-0.3-2.28c-0.08-0.44-0.18-0.94-0.3-1.5c-0.399-1.92-0.6-3.399-0.6-4.439
			c0-0.4,0-0.781,0-1.141c-6.92,0.16-12.739-2.74-17.459-8.7c-5.16-6.52-7.74-15.24-7.74-26.16c0-6.88,1.74-12.28,5.221-16.2
			c3.479-3.96,7.739-5.36,12.779-4.2c-4.24-8.16-3.22-15.12,3.06-20.88c5.761-5.28,13.74-7.919,23.94-7.919c5.2,0,8.2,0.399,9,1.2
			v1.2c1-3.64,1.14-7.38,0.42-11.22c-1.32-7.16-1-14.2,0.96-21.12c0.759-2.64,2.36-4.58,4.8-5.82c8.56-4.28,17.68-5.12,27.36-2.52
			c4.081-8.12,10.121-15.08,18.12-20.88c7.4-5.36,13.581-8.04,18.54-8.04c3.84,0,7.56,1.88,11.16,5.64
			c3.36,3.561,5.04,6.88,5.04,9.96c1.08-1.04,1.94-2.24,2.58-3.6c3.68-7.48,8.26-14.38,13.74-20.7c2.6-3,5.44-5.741,8.52-8.22
			c5.282-4.28,11.02-5.64,17.221-4.08c1.439,0.36,2.879,0.56,4.32,0.6c11.359,0.2,20.959,4.14,28.799,11.82
			c7.4,7.32,9.141,15.78,5.221,25.38c3,0,8.699-1.8,17.1-5.4c8.4-3.6,14.9-5.4,19.5-5.4c16.4,0,28.621,4.02,36.66,12.06
			c6.359,6.32,9.539,14.3,9.539,23.94c0,6.96-1.34,11.48-4.02,13.56c-1.68,1.04-2.98,1.94-3.9,2.7
			c-1.559,1.28-2.879,3.02-3.959,5.22c19.16-2.36,33.279,1.4,42.359,11.28c7.682,8.32,11.52,20.6,11.52,36.84
			c0,5.52-0.18,9.22-0.539,11.1c-0.439,2.28-1.42,3.8-2.939,4.56c-1.121,0.561-3.521,1.06-7.201,1.5
			c-5.359,0.64-9.799,1.32-13.32,2.041H652.4c8.201,2.2,13.561,4.72,16.08,7.56c2.08,2.32,3.119,6.2,3.119,11.64
			c0,6.16-2.799,10.98-8.4,14.46c-3.838,2.36-7.238,3.54-10.199,3.54c-3.641,0-6-0.08-7.08-0.24c-2.039-0.359-3.84-0.939-5.398-1.74
			c3.998,3.681,7.398,7.96,10.199,12.84c3.52,6.16,5.279,11.74,5.279,16.74c0,10.919-4.379,18.54-13.139,22.86
			c-4.801,2.36-10.221,3.54-16.262,3.54c-0.479,0-0.939,0-1.379,0c-4.279,0-6.701-0.08-7.26-0.24c-1.561-0.44-2.881-1.96-3.961-4.56
			h-1.199c3.4,4.4,6.879,8,10.439,10.8c0.039,0.04,0.08,0.08,0.121,0.12c0.119,0.12,0.219,0.26,0.299,0.42
			c0.041,0.04,0.08,0.08,0.121,0.12c1.479,2.12,2.219,5.899,2.219,11.34c0,4.28-0.68,7.92-2.039,10.92
			c-0.201,0.36-0.381,0.7-0.541,1.02c-1.238,2.28-2.9,4.16-4.98,5.64c-0.119,0.04-0.219,0.1-0.299,0.18
			c-0.08,0.04-0.16,0.101-0.24,0.18c-0.08,0.04-0.16,0.08-0.24,0.12c-3.84,2.36-9.26,3.54-16.26,3.54c-3.84,0-8.34-1.34-13.5-4.02
			c-1.119-0.6-2.121-1.16-3-1.68c-0.641-0.4-1.221-0.781-1.74-1.141c-1.279-0.92-2.279-1.78-3-2.58c-0.041,2.32-0.041,4.66,0,7.02
			c0,43.12,0.859,86.24,2.58,129.359c6.48-0.04,12.18-0.16,17.1-0.359c6-0.201,10.801-0.501,14.4-0.9
			c-0.799-1.241-1.42-2.32-1.859-3.24c-0.281-0.6-0.541-1.18-0.781-1.74c-0.52-1.44-0.779-2.819-0.779-4.141
			c0-2.52,0.9-4.499,2.701-5.939c1.479-1.2,3.119-1.8,4.918-1.8c1.201,0,2.141,0.221,2.822,0.66c0.518,0.36,1.139,1.08,1.859,2.16
			c1.68-1.881,3.459-4.08,5.34-6.601c1.398-1.6,3.02-2.399,4.859-2.399c3.08,0,5.621,0.96,7.619,2.88
			c1.801,1.72,2.701,3.68,2.701,5.88c0,1.279-0.199,2.299-0.6,3.059c-0.361,0.399-0.602,0.699-0.721,0.9
			c0.119,0,0.26,0.079,0.42,0.24c2.201,0.119,4.602,0.1,7.199-0.061c1.961,0.12,3.762,1.02,5.4,2.7
			c1.922,1.96,2.881,4.48,2.881,7.56c0,2.681-1,4.66-3,5.94c-0.84,0.52-1.641,0.86-2.4,1.02c-0.801,0.121-1.559,0.08-2.279-0.119
			 M652.82,522.001l1.32,2.521c0.6,1.199,0.9,2.66,0.9,4.379c0,2.561-0.92,4.98-2.76,7.261c-2.24,2.84-5.021,3.819-8.342,2.939
			 M642.98,539.042c-0.16,0.999-0.439,1.92-0.84,2.76c-1.039,2.08-2.76,3.12-5.16,3.12c-2.641,0-4.34-0.319-5.1-0.96
			c-0.721-1-1.541-1.92-2.461-2.761c0.16,1.48-0.459,2.841-1.859,4.081c-1.359,1.279-2.881,1.919-4.561,1.919
			c-1.6,0-3-0.359-4.199-1.079c-0.801-0.48-1.66-1.22-2.58-2.221c-1.92-2.08-3.102-3.499-3.541-4.26
			c-0.039-0.08-0.078-0.14-0.119-0.18c-0.961,0.601-2.119,1.28-3.48,2.039l-5.459,2.762l-0.182,0.06l-0.119,0.06 M602.9,544.562
			c-0.92,0.439-1.9,0.899-2.939,1.379c-0.32,0.161-0.641,0.32-0.961,0.48c-1.92,0.841-3.84,1.659-5.76,2.46
			c-2.961,1.2-5.898,2.301-8.82,3.3c0.92,18.28,2,36.58,3.24,54.9c-0.041,0.359-0.041,0.8,0,1.32c0.08,4.48,0.66,15.239,1.74,32.279
			c1.199,19.12,1.799,30.32,1.799,33.601c-1.559,3.68-3.318,7.021-5.279,10.021v0.06c-1.199,1.88-2.479,3.62-3.84,5.22
			c-0.719,0.88-1.381,1.66-1.98,2.34h-0.059c-1.68,1.761-2.859,2.641-3.541,2.641c-2.4-0.401-3.84-0.601-4.32-0.601
			c-0.119,0-0.418,0.061-0.898,0.18c-0.641,0.16-1.6,0.421-2.881,0.78c-3.199,0.88-4.939,1.36-5.221,1.44
			c-1.16,0.28-2.32,1.02-3.48,2.22c-0.199,0.2-0.439,0.38-0.719,0.54c-0.08,0.04-0.16,0.1-0.24,0.181c-0.08,0-0.16,0.02-0.24,0.06
			s-0.16,0.08-0.238,0.119c-1.002,0.32-2.361,0.48-4.082,0.48c-7.84-0.959-13.08-1.859-15.719-2.699c0.039,1.439-0.82,2.439-2.58,3
			c-1.76,0.52-6.16,1.02-13.201,1.5 M522.381,702.962c-0.4,1-0.92,1.62-1.561,1.86c-0.359,0.16-1.301,0.24-2.82,0.24
			c-2.6,0-4.5-0.021-5.699-0.06c-3.52-0.161-6.461-0.541-8.82-1.141 M501.381,701.702l-0.24-0.24c-3.96-0.16-7.86-0.64-11.701-1.439
			c-5.68-1.16-10.579-2.9-14.7-5.22c0.04-0.2-0.18-1.541-0.659-4.021c-0.04-0.08-0.06-0.14-0.06-0.18
			c-0.041-0.121-0.062-0.26-0.062-0.421v-0.06c-0.319-1.48-0.72-3.34-1.2-5.58c-0.92-4.48-1.438-7.92-1.56-10.32
			c-0.119-0.64-0.24-1.36-0.359-2.159c-0.28-1.8-0.561-4.061-0.84-6.78c-0.4-4-0.8-7-1.2-9 M472.22,690.481
			c-0.041,0.04-0.08,0.061-0.12,0.061c-1.079,0.681-2.22,0.899-3.42,0.66h-0.06 M466.88,691.562c-1.2,0.159-2.9-0.841-5.1-3
			c-0.081-0.08-0.141-0.141-0.18-0.181c-0.04-1.64-0.479-4.141-1.32-7.5c-0.121-0.479-0.24-0.939-0.36-1.379v-0.062
			c-0.921-3.399-1.561-5.919-1.92-7.56 M453.44,672.782c0.32,1.72,0.64,3.42,0.96,5.1 M623.721,189.542
			c-0.039,0.04-0.08,0.08-0.121,0.12H622.4C622.84,189.622,623.279,189.583,623.721,189.542z M419.54,154.982
			c2.041,0.44,3.7,1.04,4.98,1.8c3.6,2.121,6.36,6.68,8.279,13.681l0.6,0.18c0.399,0.2,0.6,0.54,0.6,1.02 M428,192.062
			c-2.8,3.16-4.979,5.9-6.541,8.22c-2.839,4.32-4.26,8.98-4.26,13.98c0,6.04,0.92,9.6,2.76,10.68c1.24,0.72,3.92,1.36,8.041,1.92
			c-0.8,1.6-1.2,4.8-1.2,9.6c0,3.8,2,7,6,9.6c3.761,2.4,8.16,3.6,13.2,3.6c2.561,0,4.12-0.2,4.68-0.6c0.439-0.36,1.28-1.36,2.52-3
			 M402.081,322.022c-0.88-2.24-1.78-5.1-2.7-8.58c-1.36-5.16-1.82-8.82-1.38-10.979 M410.78,331.562l-4.8-3.96
			c-1.001-1.12-2.021-2.521-3.06-4.2c-0.321-0.56-0.6-1.02-0.84-1.38c-0.48-0.76-0.84-1.24-1.081-1.44
			c-0.08-0.08-1.54,0.221-4.379,0.9c-3.161,0.76-5.481,1.04-6.961,0.84c-6.28-0.76-12.58-4.66-18.9-11.7
			c-6.56-7.24-10.66-15.16-12.3-23.76h-0.06c0-0.078,0-0.138,0-0.181 M465.321,331.322c0.92-0.72,1.8-1.52,2.639-2.4
			c5.12-5.24,7.8-12.06,8.04-20.459 M358.4,270.062c-0.521,1.08-0.86,2.4-1.02,3.96c-0.081,0.76-0.141,1.86-0.181,3.3
			 M358.459,286.863c-0.039-0.078-0.059-0.138-0.06-0.181 M385.459,472.443c-0.959,1.92-2.36,3.52-4.2,4.8
			c-2.72,1.88-5.939,2.82-9.66,2.82c-3.801,0-5.98-0.341-6.541-1.021c-0.88-2.12-2.299-4.58-4.26-7.38v-1.2
			c-0.439,4.12-2,6.521-4.679,7.2H347.6c-7.68,0-13.66-1.98-17.94-5.94c-4.84-4.479-7.26-11.3-7.26-20.459
			c0-2.641,0.92-4.94,2.76-6.9c2-2.2,4.281-2.7,6.84-1.5l0.6,0.239c0.399-0.12,0.6-0.8,0.6-2.039c0-1.521-1.2-5.101-3.6-10.74
			c-2.4-5.68-3.6-9.5-3.6-11.46c0-4,2.02-7.98,6.06-11.94c3.24-3.24,5.42-4.86,6.541-4.86c4,0,6.6,2.4,7.8,7.2h1.2
			c0-0.08-0.02-0.16-0.06-0.24c-2.12-9.64-1.12-16.82,3-21.54c3.36-3.88,8.38-5.82,15.06-5.82c5.799,0,9.359,1.16,10.68,3.48
			c1.04,1.76,1.78,6.08,2.22,12.96c0.88-0.4,2.3-1.06,4.26-1.98c1.72-0.84,3-1.26,3.84-1.26c3.08,0,5.28,2,6.6,6
			c0.801,2.4,1.2,5,1.2,7.8c0,4.16-0.12,6.44-0.36,6.84c-0.56,0.88-2.84,1.6-6.84,2.16c3.36,1.28,5.7,2.62,7.021,4.02
			c1.719,1.841,2.579,4.5,2.579,7.98c0,1.76-0.179,3.2-0.54,4.32c-0.4,1.081-1,2.06-1.8,2.94c-0.359,0.4-0.779,0.78-1.26,1.141
			 M395.6,438.063c0.92,0.6,1.82,1.18,2.7,1.739c1.121,0.721,2.2,1.38,3.24,1.98c4.2,2.6,7.2,4.359,9,5.28
			c7.52,3.84,17.42,6.46,29.7,7.859c0.04,0,0.08,0,0.12,0c0-0.28,0-0.56,0-0.84c0.32-39.24,1.78-78.48,4.38-117.72
			c-4.56,0.399-9.6,0.419-15.12,0.06c-6.84-0.4-12.44-1.66-16.8-3.78 M377.6,398.463c0.16-0.041,0.46-0.16,0.9-0.36
			c0.121,1.92,0.22,4.04,0.3,6.36 M345.68,431.763c-0.28,4.44,1.08,8,4.08,10.68c2.521,2.279,5.5,3.42,8.94,3.42
			c3.441,0,5.76-0.78,6.96-2.34c0.88-1.12,1.321-3.04,1.321-5.76 M444.74,336.363c8.32,0.719,15.18-0.96,20.581-5.041
			 M410.78,331.562c0.64,0.36,1.32,0.72,2.041,1.08 M387.14,465.842c0.04-0.399,0.06-0.779,0.06-1.14 M472.521,375.663v48
			 M571.34,336.782c3.24-0.48,6.301-1.24,9.182-2.28c1.318-0.48,2.598-1.02,3.84-1.62c6-2.92,10.078-7.06,12.238-12.419
			c1.201-3,1.801-6.4,1.801-10.2c0-15.76-2.801-24.76-8.4-27 M640.521,292.082c-1.4-0.76-2.641-1.7-3.721-2.819l-1.201-1.2
			C637.32,289.303,638.961,290.643,640.521,292.082z M500,264.062c-6.88,5.28-10.84,8.6-11.879,9.96
			c-2.48,3.2-3.721,8.08-3.721,14.64c0,6.6,1.84,11.84,5.521,15.72c0.52,0.6,1.1,1.16,1.739,1.68c3.2,2.64,6.9,4.2,11.102,4.68
			 M507.5,310.802c0.84-0.04,1.961-0.1,3.361-0.18c0.359-0.04,0.719-0.1,1.078-0.18c1.281-0.28,2.242-0.7,2.881-1.26
			c0.48-0.44,0.74-0.94,0.779-1.5c0-0.16,0-0.3,0-0.419l0.721-0.72c-0.199,0.28-0.439,0.66-0.721,1.14 M502.82,310.743
			c0.84,0.08,1.699,0.12,2.58,0.12c0.121,0,0.82-0.021,2.1-0.061 M514.82,309.182c-0.48,0.96-1,2.1-1.559,3.42
			c-1.641,3.8-2.461,6.22-2.461,7.26c0,1.319,2.02,2.74,6.061,4.26c0.119,0.04,0.238,0.08,0.359,0.12
			c3.959,1.48,7.82,2.22,11.58,2.22c5.48,0,10.02-1.021,13.619-3.061c0.721-0.399,1.422-0.86,2.102-1.38
			c0.998-0.76,1.898-1.56,2.699-2.4c0.76-0.88,1.42-1.8,1.979-2.76 M571.34,336.782c-2.479,0.32-5.061,0.48-7.74,0.48
			 M509.721,372.062v55.2 M580.16,378.243c-0.4-0.48-0.721-0.94-0.961-1.38 M637.82,508.201c0.24-1.84,0.939-3.239,2.1-4.2
			c0.801-0.68,1.6-0.999,2.4-0.959c-0.08,0.079-0.141,0.141-0.18,0.18c0.199,0,0.4,0.021,0.6,0.061 M614.541,530.941
			c0.279,1.44,0.619,2.66,1.02,3.66c0.119,0.319,0.24,0.62,0.359,0.899l0.66,1.081c0.041,0.079,0.1,0.159,0.182,0.24
			c0.799,0.999,1.939,1.5,3.418,1.5c2.08,0,3.961-0.88,5.641-2.641c1.4-1.479,2.1-2.739,2.1-3.78 M614.781,537.901
			c0.16-0.159,0.299-0.3,0.418-0.42 M616.4,516.122c-0.92-1.001-1.641-1.921-2.16-2.76 M614.781,537.901
			c-0.48,0.361-1.061,0.78-1.74,1.261c-0.121,0.08-0.24,0.159-0.361,0.239c-0.039,0.04-0.078,0.061-0.119,0.061 M602.9,544.562
			c0.16-0.081,0.299-0.141,0.42-0.181 M642.98,539.042c0.039-0.479,0.061-0.96,0.061-1.44c0-1.359-0.041-2.14-0.121-2.339
			 M520.461,475.263c1.561,2.199,2.34,4.8,2.34,7.8c0,1.04-1,2.76-3,5.159c-2.16,2.561-4.781,5.041-7.861,7.44
			c-8.119,6.399-15.699,9.6-22.74,9.6c-7.88,0-13.88-1.602-18-4.801c-4-3.08-6-7.16-6-12.24c0-5.119,2.94-7.3,8.821-6.54
			c5.839,0.76,10.6,0.681,14.279-0.239c3.64-0.961,8.159-2.761,13.561-5.4c5.959-2.92,9.939-4.38,11.939-4.38
			C516.52,471.663,518.74,472.863,520.461,475.263z M533.6,673.082c0,0.28,0.682,3.659,2.041,10.14
			c1.279,6.08,1.799,10.26,1.559,12.541 M577.58,686.462l-0.059-0.06c-0.762-2.36-1.801-5.601-3.121-9.721 M564.801,674.282
			c0.24,1.32,1,4.16,2.279,8.521c0.961,3.159,1.781,5.56,2.461,7.2c0.48,1.119,0.898,1.879,1.26,2.279 M578.66,689.642v-0.06
			c-0.279-0.76-0.641-1.8-1.08-3.12 M585.199,683.882c0-0.799-0.398-2.6-1.199-5.4c-0.799-2.799-1.199-4.6-1.199-5.399
			 M570.801,514.682c4.24,0,8.221-0.02,11.939-0.06 M567.199,556.682c5.641-1.04,11.381-2.54,17.221-4.5 M440.36,454.083
			c0.081,2.399,0.22,5.3,0.42,8.7 M386.66,469.143c-0.04,0.12-0.06,0.239-0.06,0.359c-0.04,0.04-0.06,0.101-0.06,0.18
			c-0.08,0.32-0.18,0.641-0.3,0.961c0.439,0.279,0.979,0.68,1.62,1.199 M392,475.323c0.28,0.24,0.6,0.52,0.959,0.84
			c3.761,3.32,7.041,6,9.84,8.04c5.16,3.72,10.96,7.2,17.4,10.44c6.761,3.399,13.54,6.159,20.34,8.279
			c0.521,34.72,1.959,69.439,4.32,104.16c-0.04,0.44-0.04,0.88,0,1.32c0.121,9.399,1.641,23.319,4.561,41.76
			c1.28,7.84,2.619,15.38,4.02,22.62 M387.14,465.842c0,0.2-0.02,0.4-0.06,0.601c-0.081,0.92-0.221,1.819-0.421,2.7 M385.94,471.482
			c-0.119,0.321-0.28,0.641-0.48,0.961 M385.94,471.482c0.12-0.279,0.221-0.56,0.3-0.839 M392,475.323
			c-1.679-1.44-3.06-2.6-4.14-3.48 M454.88,679.263c1.2,0,2.4,0.199,3.6,0.6 M578.66,689.642c0.281,0.88,0.461,1.36,0.539,1.44
			 M552.801,676.682c0.16,0.68,1.02,4.061,2.58,10.141c1.48,5.96,2.219,9.38,2.219,10.26 M538.461,697.263
			c-0.041-0.28-0.102-0.58-0.18-0.9 M514.4,676.682c0.801,2.681,2.301,7.301,4.5,13.86c1.799,5.561,2.699,8.939,2.699,10.14
			 M492.8,671.882c0,1.36,1.4,6.521,4.199,15.48c1.28,4.12,2.281,7.359,3,9.72c0.6,2.2,0.981,3.659,1.141,4.38"/>
	</g>
	<path fill-rule="evenodd" clip-rule="evenodd" fill="#FFFFFF" fill-opacity="0.5569" d="M521.6,557.763c8,9.759,12,21.6,12,35.52
		c0,7.84-2.18,14.76-6.539,20.76c-7.16,9.76-19.18,14.64-36.061,14.64c-15.319,0-25.599-6.58-30.84-19.74
		c-1.679-4.119-2.74-8.659-3.179-13.619c-0.121-4.12-0.181-6.2-0.181-6.24c0-16.961,4-29.66,12-38.101
		c7.081-7.4,15.88-10.34,26.4-8.819C505.48,543.642,514.281,548.842,521.6,557.763z"/>
</g>
</svg>
