<?xml version="1.0" encoding="utf-8"?>
<!-- Generator: Adobe Illustrator 16.0.0, SVG Export Plug-In . SVG Version: 6.00 Build 0)  -->
<!DOCTYPE svg PUBLIC "-//W3C//DTD SVG 1.1//EN" "http://www.w3.org/Graphics/SVG/1.1/DTD/svg11.dtd">
<svg version="1.1" id="Layer_2" xmlns="http://www.w3.org/2000/svg" xmlns:xlink="http://www.w3.org/1999/xlink" x="0px" y="0px"
	 width="1000px" height="1000px" viewBox="0 0 1000 1000" enable-background="new 0 0 1000 1000" xml:space="preserve">
<g>
	<g>
		
			<path fill-rule="evenodd" clip-rule="evenodd" fill="none" stroke="#002700" stroke-width="4" stroke-linecap="round" stroke-linejoin="round" stroke-miterlimit="3" d="
			M423.14,742.192c-3.439,3.6-5.66,9.88-6.659,18.84c-0.248,2.338-0.408,6.059-0.48,11.16c-0.04,2.315-0.06,4.916-0.06,7.8
			c0,1.16,0,2.261,0,3.3c0.027,6.598,0.127,10.778,0.3,12.54c0.4,4.16,1.3,7.58,2.7,10.26c0.12,0.28,0.24,0.501,0.36,0.66
			 M468.561,808.433v9.779 M450.74,804.952v9.78 M432.74,799.673v9.839 M424.52,742.192c47.727-16.574,95.986-15.914,144.781,1.98
			c3.04,3.439,4.5,9.459,4.379,18.06c-0.103,2.468-0.264,5.788-0.479,9.96c-0.126,2.251-0.266,4.752-0.42,7.5
			c-0.057,1.159-0.116,2.358-0.18,3.6c-0.229,5.183-0.458,11.081-0.69,17.7 M571.88,801.861c-0.111,0.501-0.222,0.971-0.329,1.411
			 M503.541,805.912l0.6,17.1 M486.32,819.952v-9.779 M522.08,808.312v9.721 M558.141,799.012v9.6 M539.96,804.652v9.659"/>
		
			<path fill-rule="evenodd" clip-rule="evenodd" fill="none" stroke="#062700" stroke-width="4" stroke-linecap="round" stroke-linejoin="round" stroke-miterlimit="3" d="
			M571.91,800.992c-0.009,0.287-0.02,0.576-0.03,0.869 M571.551,803.272c-0.551,2.247-1.041,3.647-1.471,4.2
			c-0.215,0.286-0.814,0.696-1.8,1.229c-0.869,0.365-1.738,0.726-2.61,1.08c-47.912,19.412-96.482,18.982-145.71-1.29"/>
	</g>
	<g>
		<path fill-rule="evenodd" clip-rule="evenodd" fill="#993300" d="M583.761,179.393c16.439,1.4,30.48,2.86,42.119,4.38l18.6,18.54
			l1.681,332.52c-16.64,41.721-30.6,68.96-41.88,81.72c-11.359,12.801-20.98,24.32-28.86,34.56
			c-6.28,7.721-10.399,16.842-12.359,27.361c-2.001,11.12-3,30.359-3,57.72l0.3,15.54c-47.409,18.294-91.069,18.294-130.98,0
			c-0.64-19.84-1.04-32.16-1.199-36.96c-1.16-20.04-2.761-32.66-4.801-37.86c-4.079-10.92-7.42-19.58-10.02-25.979
			c-4.72-11.801-8.3-19.12-10.74-21.96c-6.399-7.4-14.86-19.601-25.38-36.601c-14.2-23.04-22-40.26-23.4-51.66V205.792
			c3.76-9.84,21.78-17.34,54.061-22.5c23.8-3.8,54.08-6.18,90.841-7.14C522.58,175.512,550.921,176.592,583.761,179.393z"/>
		
			<path fill-rule="evenodd" clip-rule="evenodd" fill="none" stroke="#660003" stroke-width="4" stroke-linecap="round" stroke-linejoin="round" stroke-miterlimit="3" d="
			M583.761,179.393c-32.84-2.8-61.181-3.88-85.02-3.24c-36.761,0.96-67.041,3.34-90.841,7.14c-32.28,5.16-50.301,12.66-54.061,22.5
			v334.919c1.4,11.4,9.2,28.62,23.4,51.66c10.52,17,18.98,29.2,25.38,36.601c2.44,2.84,6.021,10.159,10.74,21.96
			c2.6,6.399,5.94,15.06,10.02,25.979c2.04,5.2,3.641,17.82,4.801,37.86c0.159,4.8,0.56,17.12,1.199,36.96
			c39.911,18.294,83.571,18.294,130.98,0l-0.3-15.54c0-27.36,0.999-46.6,3-57.72c1.96-10.52,6.079-19.641,12.359-27.361
			c7.88-10.239,17.501-21.759,28.86-34.56c11.28-12.76,25.24-39.999,41.88-81.72l-1.681-332.52l-18.6-18.54
			C614.241,182.252,600.2,180.792,583.761,179.393z"/>
	</g>
	
		<path fill-rule="evenodd" clip-rule="evenodd" fill="none" stroke="#FFFFFF" stroke-width="4" stroke-linecap="round" stroke-linejoin="round" stroke-miterlimit="3" d="
		M616.94,209.033c-5.48,3-25.18,5.84-59.1,8.52c-32.561,2.64-80.881,1.98-144.961-1.98 M410.24,587.933
		c-9.48-15.081-15.48-25.7-18-31.86c-0.8-1.84-2.46-5.02-4.98-9.54c-1.28-2.36-2.119-5.38-2.52-9.061
		c-0.52-4.359-0.78-12.659-0.78-24.899c0-42,0.52-98.04,1.56-168.12c0.961-70.12,1.44-108.719,1.44-115.8"/>
	<g>
		<path fill-rule="evenodd" clip-rule="evenodd" fill="#FFFFFF" d="M602.601,309.352l23.1,184.561l-25.38,0.42l18.659,33.839
			l-6.539,6.061c-5.6,5.039-11.84,9.659-18.721,13.859c-21.959,13.48-45.68,20.54-71.159,21.18c-25.64,0.641-49.641-5.38-72-18.06
			c-7.04-4.079-13.4-8.48-19.08-13.2l-6.601-5.999l11.82-31.561l-19.38-3l14.52-185.339
			C498.3,305.483,555.22,304.563,602.601,309.352z"/>
		
			<path fill-rule="evenodd" clip-rule="evenodd" fill="none" stroke="#660003" stroke-width="4" stroke-linecap="round" stroke-linejoin="round" stroke-miterlimit="3" d="
			M602.601,309.352l23.1,184.561l-25.38,0.42l18.659,33.839l-6.539,6.061c-5.6,5.039-11.84,9.659-18.721,13.859
			c-21.959,13.48-45.68,20.54-71.159,21.18c-25.64,0.641-49.641-5.38-72-18.06c-7.04-4.079-13.4-8.48-19.08-13.2l-6.601-5.999
			l11.82-31.561l-19.38-3l14.52-185.339C498.3,305.483,555.22,304.563,602.601,309.352z"/>
	</g>
	
		<path fill-rule="evenodd" clip-rule="evenodd" fill="none" stroke="#009933" stroke-width="4" stroke-linecap="round" stroke-linejoin="round" stroke-miterlimit="3" d="
		M600.021,478.913c-3.8,0.08-7.16,1.28-10.08,3.6c-2.88,2.36-4.66,5.339-5.34,8.939c-0.761,3.56-0.24,6.96,1.56,10.2l12.9,23.34
		c-4.24,3.601-8.86,6.94-13.86,10.02h-0.06c-14.444,10.921-33.444,16.762-57,17.521c-23.554,0.759-46.654-4.081-69.301-14.521
		c-5.56-3.279-10.64-6.72-15.239-10.319l8.22-21.96c1.08-2.92,1.24-5.9,0.48-8.94c-0.761-3.08-2.341-5.66-4.74-7.74
		c-2.4-2.12-5.181-3.44-8.341-3.96l-4.739-0.72l14.88-153.3c47.457-6.153,93.816-8.153,139.08-6l19.26,153.72L600.021,478.913z"/>
	
		<path fill-rule="evenodd" clip-rule="evenodd" fill="none" stroke="#062700" stroke-width="4" stroke-linecap="round" stroke-linejoin="round" stroke-miterlimit="3" d="
		M553.101,354.172c-8.393,13.444-8.243,24.384,0.45,32.82v0.06c4.388,6,6.718,11.79,6.99,17.37
		c0.219,5.667-1.751,10.717-5.911,15.15 M516.741,358.042c-7.4,12.762-7.061,23.173,1.02,31.23v0.06
		c4.116,5.709,6.347,11.249,6.689,16.62c0.292,5.402-1.418,10.242-5.13,14.52 M484.851,361.643
		c-3.377,6.082-4.938,11.622-4.681,16.62c0.253,4.831,2.294,9.201,6.12,13.11c3.862,5.534,6.021,10.844,6.48,15.93
		c0.347,5.141-1.144,9.771-4.47,13.89 M492.86,463.373c0,1.32-0.479,2.439-1.44,3.36c-0.92,0.959-2.039,1.439-3.359,1.439
		s-2.46-0.48-3.42-1.439c-0.92-0.921-1.38-2.041-1.38-3.36c0-1.32,0.46-2.46,1.38-3.42c0.96-0.92,2.1-1.38,3.42-1.38
		s2.439,0.46,3.359,1.38C492.381,460.913,492.86,462.052,492.86,463.373z M554.72,463.013c0,1.4-0.499,2.6-1.5,3.6
		c-0.959,1-2.159,1.5-3.6,1.5c-1.399,0-2.6-0.5-3.6-1.5c-1-1-1.5-2.2-1.5-3.6c0-1.44,0.5-2.64,1.5-3.6c1-1,2.2-1.5,3.6-1.5
		c1.44,0,2.641,0.5,3.6,1.5C554.221,460.373,554.72,461.572,554.72,463.013z M480.021,496.013c0.956,8.865,5.096,15.885,12.42,21.06
		c0.632,0.456,1.292,0.896,1.979,1.32c7.641,4.64,16.74,6.8,27.3,6.479c10.361-0.399,19.081-3.06,26.16-7.979
		c7.76-5.44,11.441-12.4,11.04-20.88 M492.44,514.672c18.04-6.439,35.279-6.5,51.72-0.18 M480.86,496.013
		c14.477,0.248,28.377,0.338,41.7,0.27c13.323-0.068,25.464-0.499,36.419-1.29"/>
</g>
</svg>
