<?xml version="1.0" encoding="utf-8"?>
<!-- Generator: Adobe Illustrator 16.0.0, SVG Export Plug-In . SVG Version: 6.00 Build 0)  -->
<!DOCTYPE svg PUBLIC "-//W3C//DTD SVG 1.1//EN" "http://www.w3.org/Graphics/SVG/1.1/DTD/svg11.dtd">
<svg version="1.1" id="Layer_2" xmlns="http://www.w3.org/2000/svg" xmlns:xlink="http://www.w3.org/1999/xlink" x="0px" y="0px"
	 width="1000px" height="1000px" viewBox="0 0 1000 1000" enable-background="new 0 0 1000 1000" xml:space="preserve">
<g>
	<g>
		<path fill-rule="evenodd" clip-rule="evenodd" fill="#757400" d="M404.909,641.131c-25-16.961-42.26-40.94-51.78-71.94
			c-11.56-37.721-14.9-76.2-10.02-115.44c4.68-37.92,15.2-74.12,31.56-108.6c6.16-13.04,13.3-25.44,21.42-37.2
			c22.6-36.28,54.22-55.9,94.86-58.859c37.279-2.8,73.639,1.739,109.079,13.619c39.44,13.081,69.041,36.621,88.8,70.62
			c8.601,14.72,11.621,37.9,9.062,69.541c-2.561,31.6-9,65.74-19.321,102.419c-10.359,36.641-25.84,68.12-46.439,94.44
			c-20.6,26.279-49.459,45.88-86.58,58.8c-39.24,13.76-78.08,12.32-116.52-4.32C420.31,650.45,412.27,646.09,404.909,641.131z
			 M468.33,265.771c-2.72,1.76-4.48,3.9-5.28,6.42c-2.601,8.08,5.66,15.6,24.78,22.56c19.04,7,42.78,15.42,71.219,25.26
			c28.359,9.8,53.22,17.3,74.58,22.5c21.319,5.2,33.279,3.76,35.88-4.32c0.12-0.36,0.221-0.7,0.3-1.02
			c0.72-3.6-0.399-7.9-3.359-12.9c-1.041-1.8-2.301-3.66-3.78-5.58c-3.841-4.96-9.12-10.48-15.841-16.56
			c-17.72-16-41.059-27.14-70.02-33.42c-29-6.279-54.56-9.279-76.68-9c-5.559,0.041-10.5,0.341-14.82,0.9
			c-2.279,0.28-4.399,0.66-6.359,1.14C474.509,262.71,470.969,264.05,468.33,265.771z M453.629,641.67
			c-4.8,0.681-8.92,1.38-12.36,2.1c0.201,0.081,0.42,0.181,0.661,0.3c6.6,3.081,10.1,4.681,10.5,4.801
			c-0.4-0.12-3.9-1.72-10.5-4.801c-0.24-0.119-0.46-0.219-0.661-0.3C444.709,643.05,448.83,642.351,453.629,641.67z M436.83,648.87
			c0.08-0.68,0.7-2.18,1.86-4.5c-2.76,0.681-4.98,1.38-6.66,2.1c1.68-0.72,3.9-1.419,6.66-2.1
			C437.529,646.69,436.909,648.19,436.83,648.87z M439.409,642.99c-3.6-1.4-7.26-2.24-10.979-2.521
			C432.149,640.75,435.81,641.59,439.409,642.99c-0.24,0.479-0.479,0.94-0.72,1.38c0.8-0.199,1.66-0.4,2.58-0.601
			C440.629,643.489,440.009,643.23,439.409,642.99c0.92-1.681,2.061-3.721,3.42-6.12C441.47,639.27,440.329,641.31,439.409,642.99z"
			/>
		<path fill-rule="evenodd" clip-rule="evenodd" fill="#767400" d="M468.33,265.771c2.64-1.72,6.18-3.061,10.62-4.02
			c1.96-0.48,4.08-0.86,6.359-1.14c4.32-0.56,9.261-0.86,14.82-0.9c22.12-0.279,47.68,2.721,76.68,9
			c28.961,6.28,52.3,17.421,70.02,33.42c6.721,6.08,12,11.6,15.841,16.56c1.479,1.92,2.739,3.78,3.78,5.58
			c2.96,5,4.079,9.3,3.359,12.9c-0.079,0.32-0.18,0.66-0.3,1.02c-2.601,8.08-14.561,9.52-35.88,4.32
			c-21.36-5.2-46.221-12.7-74.58-22.5c-28.439-9.84-52.18-18.26-71.219-25.26c-19.12-6.96-27.38-14.48-24.78-22.56
			C463.85,269.67,465.609,267.531,468.33,265.771z"/>
		
			<path fill-rule="evenodd" clip-rule="evenodd" fill="none" stroke="#000000" stroke-width="5" stroke-linecap="round" stroke-linejoin="round" stroke-miterlimit="3" d="
			M404.909,641.131c-25-16.961-42.26-40.94-51.78-71.94c-11.56-37.721-14.9-76.2-10.02-115.44c4.68-37.92,15.2-74.12,31.56-108.6
			c6.16-13.04,13.3-25.44,21.42-37.2c22.6-36.28,54.22-55.9,94.86-58.859c37.279-2.8,73.639,1.739,109.079,13.619
			c39.44,13.081,69.041,36.621,88.8,70.62c8.601,14.72,11.621,37.9,9.062,69.541c-2.561,31.6-9,65.74-19.321,102.419
			c-10.359,36.641-25.84,68.12-46.439,94.44c-20.6,26.279-49.459,45.88-86.58,58.8c-39.24,13.76-78.08,12.32-116.52-4.32
			C420.31,650.45,412.27,646.09,404.909,641.131c-8.76,8.399-17.1,18.64-25.02,30.72c-12.36,18.8-18.54,35.539-18.54,50.22
			l-1.2,1.08c-2.6-1.319-7.1-3.54-13.5-6.66c-7.84-3.721-12.54-5.82-14.1-6.3"/>
		
			<path fill-rule="evenodd" clip-rule="evenodd" fill="none" stroke="#373700" stroke-width="5" stroke-linecap="round" stroke-linejoin="round" stroke-miterlimit="3" d="
			M453.629,641.67c-4.8,0.681-8.92,1.38-12.36,2.1c0.201,0.081,0.42,0.181,0.661,0.3c6.6,3.081,10.1,4.681,10.5,4.801
			 M436.83,648.87c0.08-0.68,0.7-2.18,1.86-4.5c-2.76,0.681-4.98,1.38-6.66,2.1 M441.269,643.77c-0.92,0.2-1.779,0.401-2.58,0.601
			c0.24-0.439,0.479-0.9,0.72-1.38c-3.6-1.4-7.26-2.24-10.979-2.521 M439.409,642.99c0.6,0.24,1.22,0.499,1.86,0.779
			 M439.409,642.99c0.92-1.681,2.061-3.721,3.42-6.12"/>
	</g>
	<g>
		<path fill-rule="evenodd" clip-rule="evenodd" fill="#515100" d="M468.33,265.771c2.64-1.72,6.18-3.061,10.62-4.02
			c1.96-0.48,4.08-0.86,6.359-1.14c4.32-0.56,9.261-0.86,14.82-0.9c22.12-0.279,47.68,2.721,76.68,9
			c28.961,6.28,52.3,17.421,70.02,33.42c6.721,6.08,12,11.6,15.841,16.56c1.479,1.92,2.739,3.78,3.78,5.58
			c2.96,5,4.079,9.3,3.359,12.9c-0.079,0.32-0.18,0.66-0.3,1.02c-2.601,8.08-14.561,9.52-35.88,4.32
			c-21.36-5.2-46.221-12.7-74.58-22.5c-28.439-9.84-52.18-18.26-71.219-25.26c-19.12-6.96-27.38-14.48-24.78-22.56
			C463.85,269.67,465.609,267.531,468.33,265.771z"/>
		
			<path fill-rule="evenodd" clip-rule="evenodd" fill="none" stroke="#373700" stroke-width="5" stroke-linecap="round" stroke-linejoin="round" stroke-miterlimit="3" d="
			M669.809,337.17c-0.079,0.32-0.18,0.66-0.3,1.02c-2.601,8.08-14.561,9.52-35.88,4.32c-21.36-5.2-46.221-12.7-74.58-22.5
			c-28.439-9.84-52.18-18.26-71.219-25.26c-19.12-6.96-27.38-14.48-24.78-22.56c0.8-2.52,2.56-4.66,5.28-6.42"/>
	</g>
	<g>
		<path fill-rule="evenodd" clip-rule="evenodd" d="M417.569,556.591c-7.16,0.479-11.06-1.361-11.7-5.521v-0.06
			c0.28,0.2,0.56,0.42,0.84,0.66C409.709,553.95,413.329,555.59,417.569,556.591z M483.389,520.65c1.24,0.079,2.221,0.359,2.94,0.84
			c1.72,1.159,2.399,2.5,2.04,4.02c-0.28-1.319-0.96-2.52-2.04-3.6C485.61,521.19,484.629,520.77,483.389,520.65z"/>
		<path fill-rule="evenodd" clip-rule="evenodd" fill="#660000" d="M483.389,520.65c1.24,0.119,2.221,0.54,2.94,1.26
			c1.08,1.08,1.76,2.28,2.04,3.6c-0.08,0.28-0.2,0.561-0.36,0.841c-0.4,0.959-1.06,1.76-1.979,2.399l-6.48,5.579
			c-7.681,5.36-21.6,11.281-41.76,17.762c-8.4,2.639-15.14,4.139-20.22,4.5c-4.24-1.001-7.86-2.641-10.86-4.921
			c-0.28-0.24-0.56-0.46-0.84-0.66c-1.08-7.12-2.04-11.12-2.88-12c1.08-1.52,2.84-2.62,5.28-3.3c2.721-0.761,8.3-0.461,16.74,0.9
			c8.56,1.279,16.66,0.859,24.3-1.26c0.52-0.121,6.959-3.461,19.32-10.021c5.24-2.799,9.42-4.359,12.54-4.679
			C481.969,520.569,482.709,520.569,483.389,520.65z"/>
		<path fill-rule="evenodd" clip-rule="evenodd" fill="#FFFFFF" d="M488.37,525.51c0.2,1.12,0.08,2.301-0.36,3.54
			c-0.4,1.44-1.06,2.619-1.979,3.541l-6.48,8.279c-6.08,5.88-13.42,9.999-22.02,12.359c-16.68,4.601-30,5.72-39.96,3.361
			c5.08-0.361,11.82-1.861,20.22-4.5c20.161-6.48,34.08-12.401,41.76-17.762l6.48-5.579c0.92-0.64,1.579-1.44,1.979-2.399
			C488.169,526.07,488.29,525.79,488.37,525.51z"/>
		
			<path fill-rule="evenodd" clip-rule="evenodd" fill="none" stroke="#000000" stroke-width="5" stroke-linecap="round" stroke-linejoin="round" stroke-miterlimit="3" d="
			M381.149,437.07c-0.2,5.92,0.54,12.9,2.22,20.94 M483.75,459.45c-0.921-6.12-1.4-12.56-1.44-19.32 M483.389,520.65
			c-0.68-0.081-1.42-0.081-2.22,0c-3.12,0.319-7.3,1.88-12.54,4.679c-12.36,6.561-18.8,9.9-19.32,10.021
			c-7.64,2.119-15.74,2.539-24.3,1.26c-8.44-1.361-14.02-1.661-16.74-0.9c-2.44,0.68-4.2,1.78-5.28,3.3
			c-0.72,0.92-1.14,2.04-1.26,3.36c-0.36,3.079,1.02,5.96,4.14,8.64c0.28,0.2,0.56,0.42,0.84,0.66c3,2.28,6.62,3.92,10.86,4.921
			c9.96,2.358,23.28,1.239,39.96-3.361c8.6-2.36,15.94-6.479,22.02-12.359l6.48-8.279c0.92-0.922,1.579-2.101,1.979-3.541
			c0.44-1.239,0.561-2.42,0.36-3.54c-0.28-1.319-0.96-2.52-2.04-3.6C485.61,521.19,484.629,520.77,483.389,520.65z"/>
	</g>
	
		<path fill-rule="evenodd" clip-rule="evenodd" fill="none" stroke="#000000" stroke-width="5" stroke-linecap="round" stroke-linejoin="round" stroke-miterlimit="3" d="
		M676.828,573.27l6.48,4.081c3.36,2.08,6,3.119,7.92,3.119 M676.828,569.67c5.241-1,10.842-3,16.801-6 M675.629,572.069
		c0.56,1.2,1.66,4.021,3.3,8.46c1.8,4.881,2.7,7.661,2.7,8.341 M627.629,544.47c14.119,7.4,25,13.381,32.64,17.94
		c7.28,4.039,12.401,6.06,15.36,6.06 M339.629,503.67c-1.8,2-4.86,4.3-9.18,6.899c-2.281,1.4-5.22,3.1-8.82,5.101
		c-1.52,0-4.62-0.24-9.3-0.72c-5.24-0.6-8.94-1.16-11.1-1.681 M316.83,516.87h1.2v21.6 M315.629,521.67
		c-0.56,0.16-2.8,1.479-6.72,3.96c-3.479,2.16-6.04,3.24-7.68,3.24v1.199 M537.028,638.91c-1.84,24.6,3.221,46.32,15.181,65.16
		s22.5,28.72,31.619,29.64c-0.359,0.44-4.039,2.881-11.039,7.321c-7.12,4.52-11.84,8.08-14.16,10.679"/>
</g>
</svg>
