<?xml version="1.0" encoding="utf-8"?>
<!-- Generator: Adobe Illustrator 16.0.0, SVG Export Plug-In . SVG Version: 6.00 Build 0)  -->
<!DOCTYPE svg PUBLIC "-//W3C//DTD SVG 1.1//EN" "http://www.w3.org/Graphics/SVG/1.1/DTD/svg11.dtd">
<svg version="1.1" id="Layer_5" xmlns="http://www.w3.org/2000/svg" xmlns:xlink="http://www.w3.org/1999/xlink" x="0px" y="0px"
	 width="1000px" height="1000px" viewBox="0 0 1000 1000" enable-background="new 0 0 1000 1000" xml:space="preserve">
<g>
	
		<path fill-rule="evenodd" clip-rule="evenodd" fill="none" stroke="#336600" stroke-width="4" stroke-linecap="round" stroke-linejoin="round" stroke-miterlimit="3" d="
		M712.371,426.53c2.08,0.96,12.519,6.22,31.319,15.78c18.24,9.08,29.38,14.56,33.419,16.439c6-4.52,14.441-8.22,25.321-11.1
		 M805.25,475.61c-3.439-2.601-7.979-5.66-13.619-9.18c-6.801-4.24-11.641-6.801-14.521-7.681c-1.279,0.921-1.899,2.86-1.859,5.82
		c0.04,2.48,0.521,5.38,1.44,8.7c1.36,5.04,2,8.12,1.919,9.24 M238.19,465.95c-2.84-0.68-7.28-2.62-13.32-5.819
		c-5.08-2.681-9.1-4.021-12.06-4.021v-1.44 M238.19,468.831c-0.12,0.199-1.5,3.14-4.141,8.819c-2.24,4.96-3.699,8.021-4.38,9.181
		 M235.37,465.95c-6.56,4.28-14.8,8.38-24.72,12.3c-9.32,3.36-14.62,5.301-15.9,5.82 M467.511,578.33
		c0,7.84,0.239,45.199,0.72,112.08c0.479,66.879,0.72,114.42,0.72,142.621 M568.85,575.57c3.201,14.199,4.86,49.74,4.98,106.619
		c0.12,32.441-0.141,83.66-0.78,153.66 M312.71,436.37c-0.64,0.44-9.201,3.561-25.68,9.36c-19.16,6.68-34.521,12.48-46.08,17.4"/>
	<path fill-rule="evenodd" clip-rule="evenodd" fill="#660000" d="M665.69,288.23c9.64-1.08,18.64,0.88,27,5.88
		c8.479,5.16,14.46,12.36,17.94,21.601c2.72,7.239,3.459,14.64,2.219,22.199c-1.319,7.32-4.319,13.88-9,19.681
		c6.441,3.84,11.521,8.96,15.24,15.359c3.841,6.6,5.76,13.78,5.76,21.54c0,9.92-3.06,18.76-9.179,26.521
		c-5.96,7.64-13.681,12.64-23.161,15c7.561,6,12.521,13.739,14.881,23.22c2.439,9.601,1.579,18.92-2.581,27.96
		c-3.199,7.04-7.919,12.76-14.159,17.159c-6.04,4.359-12.779,6.9-20.22,7.621c1.84,7.238,1.819,14.459-0.06,21.66
		c-1.961,7.398-5.681,13.84-11.161,19.318c-6.96,7.041-15.38,11.121-25.26,12.24c-9.68,1.121-18.66-0.84-26.94-5.879
		c1.08,9.68-0.88,18.699-5.879,27.061c-5.12,8.52-12.32,14.479-21.601,17.879c-7.2,2.76-14.601,3.48-22.2,2.16
		c-7.36-1.201-13.94-4.139-19.74-8.82c-3.719,6.4-8.799,11.439-15.24,15.119c-6.68,3.92-13.859,5.881-21.54,5.881
		c-9.96,0-18.819-3.1-26.579-9.299c-7.601-6.041-12.58-13.74-14.94-23.102c-6,7.6-13.74,12.561-23.22,14.881
		c-9.6,2.439-18.94,1.6-28.021-2.52c-6.959-3.281-12.68-8.021-17.16-14.221c-4.32-6.08-6.86-12.801-7.62-20.16
		c-7.28,1.801-14.479,1.76-21.6-0.119c-7.439-1.961-13.879-5.66-19.32-11.102c-7-7.039-11.08-15.459-12.24-25.26
		c-1.12-9.719,0.82-18.719,5.82-27c-9.641,1.121-18.641-0.839-27-5.879c-8.48-5.08-14.48-12.26-18-21.54
		c-2.721-7.28-3.42-14.72-2.1-22.32c1.24-7.279,4.2-13.82,8.88-19.619c-6.4-3.841-11.44-8.961-15.12-15.36
		c-3.92-6.601-5.88-13.761-5.88-21.48c0-9.96,3.06-18.819,9.18-26.58c6.04-7.64,13.78-12.619,23.22-14.939
		c-7.6-6.04-12.56-13.82-14.88-23.34c-2.44-9.521-1.6-18.801,2.52-27.841c3.24-7.079,7.98-12.84,14.22-17.279
		c6.04-4.28,12.76-6.82,20.16-7.62c-1.8-7.24-1.76-14.46,0.12-21.66c1.96-7.4,5.66-13.8,11.1-19.2c7-7.04,15.42-11.12,25.26-12.24
		c9.68-1.119,18.7,0.8,27.06,5.76c-1.16-9.64,0.78-18.619,5.82-26.939c5.08-8.48,12.28-14.48,21.6-18
		c7.2-2.72,14.62-3.42,22.259-2.1c7.28,1.239,13.841,4.18,19.681,8.82c3.72-6.4,8.819-11.461,15.3-15.181
		c6.641-3.84,13.801-5.76,21.479-5.76c9.88,0,18.761,3.06,26.641,9.18c7.601,6.04,12.56,13.76,14.88,23.16
		c6-7.6,13.74-12.56,23.22-14.88c9.64-2.4,18.96-1.54,27.96,2.58c7.001,3.2,12.74,7.94,17.221,14.22c4.279,6,6.84,12.74,7.68,20.22
		c7.16-1.84,14.32-1.819,21.48,0.061c7.479,1.92,13.919,5.62,19.319,11.1c7.04,7,11.12,15.42,12.24,25.26
		C672.61,270.971,670.69,279.95,665.69,288.23z"/>
	<path fill-rule="evenodd" clip-rule="evenodd" fill="#993300" d="M666.891,281.99c9.68-1.08,18.699,0.88,27.06,5.88
		c8.521,5.12,14.479,12.32,17.88,21.601c2.76,7.239,3.479,14.64,2.16,22.199c-1.2,7.28-4.141,13.84-8.819,19.681
		c6.399,3.8,11.439,8.92,15.119,15.36c3.92,6.6,5.881,13.76,5.881,21.479c0,9.92-3.081,18.8-9.24,26.641
		c-6.04,7.6-13.74,12.579-23.101,14.939c7.561,5.96,12.5,13.68,14.82,23.16c2.439,9.64,1.601,18.96-2.52,27.96
		c-3.28,7-8.021,12.74-14.221,17.22c-6.08,4.319-12.8,6.88-20.16,7.681c1.8,7.16,1.78,14.34-0.06,21.539
		c-2.001,7.439-5.72,13.9-11.16,19.381c-7.04,7.039-15.46,11.119-25.26,12.238c-9.721,1.121-18.721-0.84-27-5.879
		c1.119,9.639-0.84,18.66-5.88,27.061c-5.08,8.439-12.261,14.4-21.541,17.879c-7.279,2.762-14.72,3.5-22.319,2.221
		c-7.279-1.24-13.819-4.221-19.62-8.939c-3.84,6.439-8.959,11.498-15.36,15.18c-6.6,3.92-13.76,5.879-21.479,5.879
		c-9.92,0-18.78-3.1-26.58-9.299c-7.64-6-12.62-13.699-14.94-23.102c-6,7.561-13.72,12.521-23.159,14.881
		c-9.64,2.439-18.98,1.6-28.021-2.52c-7-3.281-12.76-8.039-17.28-14.279c-4.28-6.041-6.82-12.762-7.62-20.162
		c-7.2,1.84-14.4,1.801-21.6-0.119c-7.439-1.92-13.86-5.6-19.26-11.039c-7.04-7-11.12-15.42-12.24-25.262
		c-1.12-9.719,0.8-18.74,5.76-27.059c-9.64,1.16-18.621-0.78-26.94-5.82c-8.48-5.12-14.48-12.34-18-21.66
		c-2.68-7.199-3.38-14.6-2.1-22.199c1.24-7.32,4.18-13.9,8.82-19.74c-6.4-3.761-11.46-8.841-15.18-15.24
		c-3.84-6.641-5.76-13.82-5.76-21.54c0-9.92,3.06-18.78,9.18-26.58c6.041-7.6,13.76-12.56,23.161-14.88
		c-7.601-6.04-12.561-13.82-14.88-23.34c-2.4-9.561-1.541-18.86,2.58-27.9c3.2-7,7.96-12.72,14.28-17.159
		c6.04-4.32,12.76-6.881,20.16-7.681c-1.84-7.28-1.82-14.479,0.06-21.601c1.92-7.479,5.62-13.899,11.1-19.26
		c7-7,15.42-11.08,25.26-12.24c9.72-1.159,18.72,0.761,27,5.761c-1.12-9.64,0.84-18.62,5.88-26.94
		c5.121-8.52,12.32-14.54,21.6-18.06c7.2-2.641,14.581-3.34,22.14-2.1c7.399,1.279,13.96,4.239,19.68,8.88
		c3.841-6.44,8.96-11.501,15.36-15.181c6.601-3.84,13.78-5.76,21.54-5.76c9.92,0,18.76,3.061,26.52,9.181
		c7.64,6,12.641,13.72,15,23.159c6-7.6,13.74-12.56,23.22-14.88c9.601-2.399,18.941-1.54,28.021,2.58c7,3.2,12.7,7.92,17.101,14.16
		c4.359,6.08,6.939,12.82,7.74,20.22c7.159-1.84,14.339-1.82,21.539,0.061c7.4,1.96,13.841,5.68,19.32,11.159
		c7.04,6.96,11.12,15.381,12.24,25.26C673.89,264.73,671.931,273.711,666.891,281.99z"/>
	<path fill-rule="evenodd" clip-rule="evenodd" fill="#000033" fill-opacity="0.2" d="M664.85,420.17h-0.359
		c-0.04,0-0.399,0.181-1.08,0.541c-0.72,0.319-1.399,0.56-2.039,0.72c-1.641-1.4-2.66-2.28-3.062-2.641
		c-0.479-0.399-0.72-0.68-0.72-0.84c0-1.2,0.36-2.18,1.081-2.939c1.119-1.2,2.959-1.34,5.52-0.42c0,0.12,0.181,0.38,0.54,0.779
		c0.24,0.4,0.359,1.2,0.359,2.4C665.09,419.091,665.011,419.891,664.85,420.17z M661.371,404.03c0,2.44-1.461,3.66-4.381,3.66
		c-1.319,0-2.36-0.12-3.119-0.359l-0.541-0.301c0-0.08-0.141-0.279-0.42-0.6c-0.16-0.24-0.239-0.98-0.239-2.22
		c0-1.921,0.699-3.061,2.1-3.421c1.079-0.399,2.98-0.399,5.7,0c0,0.12,0.159,0.4,0.479,0.841
		C661.23,402.03,661.371,402.831,661.371,404.03z M521.631,199.49c0,0.12,0.179,0.36,0.54,0.721c0.239,0.439,0.359,1.26,0.359,2.459
		c0,1.32-0.079,2.12-0.24,2.4h-0.419c-0.041,0-0.381,0.18-1.021,0.54c-0.719,0.36-1.398,0.601-2.04,0.721
		c-1.679-1.4-2.72-2.281-3.119-2.641c-0.439-0.359-0.66-0.64-0.66-0.84c0-1.24,0.36-2.22,1.079-2.94
		C517.23,198.711,519.07,198.57,521.631,199.49z M463.79,254.091c0-1.84,0.7-2.98,2.101-3.421c1.079-0.359,3-0.34,5.76,0.061
		c0,0.08,0.14,0.34,0.42,0.78c0.319,0.439,0.479,1.26,0.479,2.46c0,2.399-1.459,3.6-4.38,3.6c-1.239,0-2.26-0.08-3.06-0.239
		l-0.66-0.421c0-0.08-0.12-0.26-0.36-0.54C463.891,256.09,463.79,255.33,463.79,254.091z M388.25,269.03
		c0.32,0.44,0.48,1.26,0.48,2.46c0,1.28-0.08,2.061-0.24,2.341h-0.36c-0.041,0-0.4,0.18-1.081,0.539
		c-0.76,0.4-1.439,0.64-2.04,0.721c-1.64-1.36-2.66-2.2-3.06-2.521c-0.48-0.44-0.72-0.76-0.72-0.96c0-1.16,0.34-2.1,1.02-2.82
		c1.12-1.239,2.98-1.439,5.581-0.6C387.831,268.311,387.971,268.591,388.25,269.03z M334.91,389.57c0,2.04-0.08,2.96-0.24,2.761
		c-0.2,0-0.62,0.18-1.26,0.539c-0.8,0.44-1.52,0.801-2.16,1.08c-1.72-1.439-2.76-2.34-3.12-2.7c-0.4-0.439-0.6-0.999-0.6-1.68
		c0-1.8,1.24-3.04,3.72-3.72C333.69,385.131,334.91,386.37,334.91,389.57z M364.37,441.41c-0.04,0-0.38,0.181-1.02,0.54
		c-0.76,0.32-1.479,0.58-2.16,0.78c-1.601-1.4-2.6-2.28-3-2.64c-0.48-0.4-0.72-0.681-0.72-0.841c0-1.239,0.32-2.24,0.96-3
		c1.12-1.2,3-1.34,5.64-0.419c0,0.119,0.16,0.399,0.479,0.839c0.321,0.36,0.48,1.141,0.48,2.341c0,1.32-0.14,2.12-0.42,2.399
		C364.57,441.53,364.49,441.53,364.37,441.41z M409.55,337.851c0.321,0.36,0.48,1.14,0.48,2.34c0,1.36-0.12,2.16-0.36,2.4h-0.239
		c-0.041,0-0.4,0.18-1.081,0.54c-0.76,0.359-1.459,0.62-2.1,0.779c-1.64-1.439-2.64-2.3-3-2.579c-0.48-0.44-0.72-0.721-0.72-0.841
		c0-1.28,0.32-2.279,0.96-3c1.12-1.239,2.98-1.399,5.58-0.479C409.07,337.131,409.23,337.41,409.55,337.851z M390.831,411.591
		c0.279,0.439,0.419,1.26,0.419,2.459c0,2.4-1.459,3.601-4.38,3.601c-1.28,0-2.32-0.1-3.12-0.3l-0.6-0.301
		c0-0.119-0.12-0.3-0.36-0.539c-0.16-0.32-0.24-1.08-0.24-2.28c0-1.84,0.7-2.979,2.1-3.42c1.121-0.36,3.021-0.36,5.7,0
		C390.35,410.891,390.51,411.15,390.831,411.591z M437.57,404.03c0,1.28-0.141,2.06-0.42,2.34h-0.24c-0.04,0-0.38,0.2-1.02,0.601
		c-0.76,0.319-1.48,0.56-2.16,0.72c-1.6-1.399-2.601-2.26-3-2.58c-0.48-0.4-0.72-0.7-0.72-0.899c0-1.2,0.32-2.181,0.96-2.94
		c1.16-1.2,3.04-1.36,5.64-0.48c0,0.12,0.14,0.4,0.42,0.841C437.391,402.03,437.57,402.831,437.57,404.03z M643.431,289.011
		c0.28,0.439,0.419,1.26,0.419,2.46c0,1.319-0.1,2.14-0.3,2.46h-0.359l-1.02,0.42c-0.721,0.399-1.421,0.66-2.101,0.78
		c-1.641-1.44-2.66-2.301-3.061-2.581c-0.439-0.439-0.66-0.719-0.66-0.839c0-1.28,0.34-2.261,1.021-2.94
		c1.119-1.28,2.979-1.46,5.579-0.54C642.95,288.311,643.11,288.57,643.431,289.011z M546.29,336.471c0,1.28-0.079,2.1-0.24,2.46
		h-0.359c-0.04,0-0.399,0.16-1.081,0.479c-0.719,0.36-1.379,0.58-1.979,0.66c-1.721-1.36-2.78-2.199-3.181-2.521
		c-0.399-0.399-0.601-0.659-0.601-0.779c0-1.32,0.34-2.32,1.021-3c1.119-1.24,2.959-1.4,5.52-0.48c0,0.081,0.18,0.32,0.54,0.721
		C546.171,334.45,546.29,335.271,546.29,336.471z M475.07,344.511c0,2.08-0.12,3.04-0.36,2.88c-0.2,0-0.6,0.16-1.199,0.479
		c-0.841,0.44-1.581,0.78-2.221,1.021c-1.64-1.36-2.66-2.24-3.06-2.641c-0.48-0.439-0.72-1.02-0.72-1.739
		c0-1.8,1.26-3.04,3.779-3.721C473.811,340.11,475.07,341.351,475.07,344.511z M491.99,431.271c-0.48-0.48-0.72-1.061-0.72-1.74
		c0-1.72,1.26-2.939,3.779-3.66c2.521-0.72,3.78,0.501,3.78,3.66c0,2.08-0.12,3.021-0.359,2.82c-0.2,0-0.62,0.18-1.261,0.54
		c-0.76,0.479-1.48,0.819-2.16,1.02C493.21,432.351,492.19,431.471,491.99,431.271z M617.931,339.53c0,0.12,0.179,0.38,0.54,0.78
		c0.28,0.399,0.42,1.22,0.42,2.46c0,1.28-0.12,2.08-0.36,2.399h-0.3c-0.04,0-0.4,0.16-1.08,0.48c-0.72,0.36-1.38,0.58-1.979,0.66
		c-1.721-1.32-2.761-2.14-3.121-2.46c-0.439-0.44-0.659-0.74-0.659-0.9c0-1.159,0.319-2.14,0.959-2.939
		C613.471,338.811,615.33,338.65,617.931,339.53z M587.631,411.53c0,2.44-1.48,3.66-4.44,3.66c-1.28,0-2.28-0.12-3-0.359l-0.72-0.24
		c0-0.2-0.101-0.4-0.3-0.601c-0.24-0.319-0.361-1.08-0.361-2.279c0-1.881,0.721-3.061,2.161-3.541
		c1.079-0.279,2.959-0.26,5.639,0.061c0,0.2,0.181,0.5,0.541,0.9C587.47,409.53,587.631,410.331,587.631,411.53z M642.29,405.17
		h-0.24c-0.04,0-0.419,0.16-1.14,0.48c-0.72,0.4-1.399,0.641-2.039,0.72c-1.681-1.359-2.681-2.199-3-2.52
		c-0.48-0.4-0.721-0.68-0.721-0.84c0-1.24,0.319-2.221,0.959-2.94c1.121-1.24,2.961-1.42,5.521-0.54c0,0.08,0.179,0.34,0.54,0.78
		c0.319,0.44,0.479,1.26,0.479,2.46C642.65,404.051,642.53,404.851,642.29,405.17z M520.971,451.431h-0.24
		c-0.08,0.2-0.28,0.399-0.6,0.6c-0.441,0.44-1.301,0.66-2.581,0.66c-2.8,0-4.88-1.16-6.24-3.479l-1.2-3.301
		c0-4.28,1.842-5.3,5.521-3.06c1.439,0.76,2.76,1.84,3.959,3.24c1.16,1.319,1.74,2.319,1.74,3
		C521.33,450.33,521.21,451.11,520.971,451.431z M558.471,484.011c-0.761,0.479-1.46,0.819-2.1,1.02
		c-2.001-1.64-3.021-2.5-3.062-2.58c-0.479-0.52-0.72-1.14-0.72-1.859c0-1.72,1.26-2.94,3.781-3.66
		c2.439-0.681,3.659,0.54,3.659,3.66c0,2.119-0.079,3.06-0.24,2.819C559.59,483.41,559.15,483.61,558.471,484.011z M487.07,541.49
		c0.32,0.439,0.479,1.279,0.479,2.52c0,1.279-0.1,2.02-0.3,2.221h-0.3c-0.04,0-0.399,0.199-1.079,0.6
		c-0.721,0.359-1.421,0.6-2.101,0.721c-1.641-1.4-2.66-2.221-3.061-2.461c-0.439-0.439-0.66-0.779-0.66-1.02
		c0-1.201,0.341-2.16,1.021-2.881c1.08-1.238,2.92-1.42,5.52-0.539C486.59,540.77,486.751,541.051,487.07,541.49z M545.09,526.67
		c0-1.24,0.32-2.24,0.96-3c1.12-1.279,2.96-1.439,5.521-0.48c0,0.08,0.199,0.34,0.601,0.781c0.28,0.439,0.419,1.26,0.419,2.459
		c0,1.32-0.119,2.102-0.359,2.34h-0.24c-0.04,0-0.42,0.18-1.141,0.541c-0.719,0.359-1.379,0.6-1.979,0.721
		c-1.721-1.4-2.741-2.221-3.062-2.461C545.33,527.131,545.09,526.83,545.09,526.67z M540.771,542.449
		c-0.48-0.479-0.721-1.08-0.721-1.799c0-1.721,1.24-2.961,3.721-3.721c2.56-0.68,3.839,0.561,3.839,3.721
		c0,2.08-0.119,3.02-0.359,2.82c-0.199,0-0.6,0.18-1.2,0.539c-0.759,0.441-1.52,0.801-2.279,1.08
		C541.85,543.449,540.851,542.57,540.771,542.449z M429.77,461.331c1.121-1.2,2.98-1.381,5.58-0.541c0,0.16,0.181,0.421,0.541,0.78
		c0.24,0.44,0.359,1.28,0.359,2.521c0,1.239-0.1,2.04-0.3,2.399h-0.3c-0.04,0-0.4,0.141-1.08,0.42c-0.72,0.4-1.4,0.641-2.04,0.721
		c-1.68-1.32-2.7-2.16-3.06-2.521c-0.48-0.4-0.72-0.68-0.72-0.84C428.75,462.99,429.09,462.011,429.77,461.331z M401.21,521.51
		c0,1.24-0.081,2-0.24,2.281c-0.08,0.119-0.2,0.119-0.36,0c-0.08,0-0.44,0.18-1.08,0.539c-0.72,0.359-1.4,0.58-2.04,0.66
		c-1.68-1.359-2.72-2.18-3.12-2.459c-0.36-0.441-0.54-0.762-0.54-0.961c0-1.201,0.32-2.16,0.959-2.881
		c1.12-1.238,2.96-1.398,5.521-0.479c0,0.078,0.18,0.34,0.54,0.779C401.09,519.43,401.21,520.27,401.21,521.51z"/>
	<path fill-rule="evenodd" clip-rule="evenodd" fill="#FFFFFF" fill-opacity="0.2" d="M447.53,312.591c-3.76,0-6.54-1.54-8.34-4.62
		c-1.08-1.921-1.62-3.66-1.62-5.221c0-3.319,1.02-5.859,3.061-7.619c1.84-1.561,4.14-2.221,6.899-1.98c2.68,0.16,4.98,1.08,6.9,2.76
		c2.079,1.88,3.119,4.221,3.119,7.021c0,1.8-0.72,3.699-2.159,5.7C453.51,311.271,450.891,312.591,447.53,312.591z M359.99,309.351
		c2.72,0.159,5,1.1,6.84,2.819c2.12,1.881,3.18,4.221,3.18,7.021c0,1.68-0.72,3.561-2.16,5.641c-1.96,2.64-4.58,3.959-7.86,3.959
		c-3.88,0-6.7-1.539-8.46-4.62c-1.04-1.8-1.56-3.539-1.56-5.22c0-3.279,1.04-5.779,3.12-7.5
		C354.93,309.851,357.23,309.15,359.99,309.351z M351.95,405.41c1.16-1.04,2.58-1.56,4.26-1.56c1.76,0,3.22,0.52,4.38,1.56
		c1.24,1.16,1.86,2.74,1.86,4.74c0,1.28-0.42,2.54-1.26,3.78c-1.08,1.68-2.74,2.52-4.98,2.52c-2.72,0-4.6-1.14-5.64-3.42
		c-0.4-2.16-0.6-3.12-0.6-2.88C349.97,408.15,350.63,406.57,351.95,405.41z M328.07,437.091c-0.88,0-1.5-0.24-1.86-0.721
		c0.399-1.04,1.66-1.04,3.78,0C329.67,436.851,329.03,437.091,328.07,437.091z M407.75,364.91c5.28,0.32,9.84,2.2,13.681,5.64
		c4.2,3.721,6.3,8.36,6.3,13.921c0,3.56-1.46,7.34-4.38,11.34c-3.92,5.4-9.12,8.1-15.6,8.1c-7.64,0-13.26-3.08-16.86-9.24
		c-2.12-3.76-3.18-7.239-3.18-10.439c0-6.68,2.08-11.78,6.24-15.3C397.63,365.851,402.23,364.511,407.75,364.91z M598.79,319.37
		c2.681,0.16,4.98,1.101,6.9,2.82c2.12,1.84,3.181,4.18,3.181,7.021c0,1.76-0.721,3.64-2.161,5.64c-1.96,2.72-4.6,4.08-7.92,4.08
		c-3.72,0-6.5-1.58-8.34-4.74c-1.079-1.88-1.62-3.6-1.62-5.16c0-3.36,1.04-5.9,3.12-7.62
		C593.83,319.851,596.11,319.171,598.79,319.37z M518.81,261.65c0,1.8-0.72,3.7-2.159,5.7c-1.96,2.68-4.58,4.02-7.86,4.02
		c-3.761,0-6.54-1.579-8.34-4.739c-1.079-1.881-1.62-3.621-1.62-5.221c0-3.279,1.02-5.8,3.061-7.56
		c1.879-1.561,4.18-2.22,6.899-1.98c2.72,0.16,5.001,1.101,6.841,2.82C517.75,256.57,518.81,258.891,518.81,261.65z M550.671,394.73
		c2.12,1.88,3.179,4.34,3.179,7.38c0,2.76-0.82,5.12-2.459,7.08c-1.88,2.28-4.421,3.42-7.62,3.42c-4.479,0-7.5-1.84-9.061-5.52
		c-0.479-1.16-0.779-2.4-0.9-3.721v-1.5c0-3.239,1.041-5.76,3.121-7.56c1.919-1.601,4.2-2.34,6.84-2.22
		C546.49,392.171,548.79,393.05,550.671,394.73z M646.971,364.25c-0.356-2.135-0.537-3.075-0.54-2.819
		c0.001-2.042,0.621-3.643,1.859-4.8c1.16-1,2.62-1.5,4.381-1.5c1.679,0,3.1,0.5,4.26,1.5c1.319,1.159,1.979,2.76,1.979,4.8
		c0,1.279-0.439,2.52-1.32,3.72c-1.16,1.64-2.799,2.46-4.919,2.46C649.87,367.61,647.971,366.49,646.971,364.25z M635.15,495.17
		c-3.881,0-6.68-1.539-8.4-4.62c-1.079-1.8-1.619-3.56-1.619-5.279c0-3.28,1.039-5.8,3.119-7.56c1.8-1.561,4.101-2.24,6.9-2.041
		c2.64,0.201,4.94,1.16,6.899,2.88c2.04,1.841,3.06,4.181,3.06,7.021c0,1.76-0.699,3.64-2.1,5.641
		C641.051,493.851,638.43,495.17,635.15,495.17z M565.371,494.75c-1.921,2.681-4.521,4.021-7.801,4.021
		c-3.76,0-6.56-1.58-8.399-4.74c-1.041-1.84-1.562-3.52-1.562-5.04c0-3.359,1.021-5.94,3.062-7.74
		c1.84-1.56,4.139-2.199,6.899-1.919c2.681,0.119,4.979,1.04,6.9,2.76c2.039,1.88,3.06,4.199,3.06,6.959
		C567.53,490.891,566.81,492.79,565.371,494.75z M462.891,480.95c-1.921,2.721-4.54,4.08-7.86,4.08c-3.8,0-6.6-1.56-8.399-4.68
		c-1.081-1.84-1.62-3.56-1.62-5.16c0-2.96,1.06-5.36,3.18-7.2c1.92-1.76,4.2-2.7,6.84-2.82c2.72-0.12,5.02,0.661,6.9,2.341
		c2.079,1.84,3.119,4.439,3.119,7.8C465.05,477.07,464.33,478.95,462.891,480.95z M386.27,465.17c0-1.999,0.62-3.58,1.86-4.739
		c1.16-1.04,2.62-1.561,4.38-1.561c1.68,0,3.1,0.521,4.26,1.561c1.32,1.159,1.98,2.74,1.98,4.739c0,1.32-0.419,2.58-1.26,3.78
		c-1.16,1.681-2.82,2.521-4.98,2.521c-2.68,0-4.52-1.14-5.52-3.421C386.51,465.931,386.27,464.971,386.27,465.17z M409.13,525.471
		c-1.081-1.881-1.62-3.602-1.62-5.16c0-3.281,1.04-5.82,3.12-7.621c1.84-1.559,4.14-2.219,6.9-1.979c2.64,0.16,4.94,1.1,6.9,2.82
		c2.04,1.879,3.06,4.219,3.06,7.02c0,1.799-0.7,3.68-2.1,5.639c-1.92,2.682-4.54,4.021-7.86,4.021
		C413.69,530.211,410.89,528.631,409.13,525.471z"/>
	<g>
		<path fill-rule="evenodd" clip-rule="evenodd" fill="#943500" d="M401.69,393.41c0.12-1.72,0.38-3.159,0.78-4.319
			c0.88-2.521,2.46-4.221,4.74-5.101c1.8-0.8,4.6-1.26,8.4-1.38c-1.44,0.48-2.74,1-3.9,1.56
			C407.31,386.331,403.97,389.41,401.69,393.41c2.28-4,5.62-7.079,10.02-9.24c1.16-0.56,2.459-1.079,3.9-1.56
			c0.399-0.04,0.88-0.061,1.439-0.061c1.48-0.039,3.661-0.039,6.541,0c1.24-0.76,2.54-1.56,3.9-2.399h33.78
			c19.079,1.76,30.64,3.2,34.68,4.32c3,0.92,5.1,2.14,6.3,3.66c1.08,1.399,1.621,3.419,1.621,6.06c0,2.2-0.82,4.26-2.461,6.18
			c-0.68,0.841-1.48,1.54-2.4,2.101c1.36,0.64,2.461,1.42,3.3,2.34c1.041,1.2,1.562,3.08,1.562,5.64c0,2.48-0.48,4.36-1.44,5.641
			c-1.2,1.6-3.44,2.88-6.721,3.84c-1.24,0.279-2.78,0.579-4.62,0.9c-0.079,1.119-0.319,2.119-0.719,3
			c-3,8.359-15.82,12.539-38.461,12.539c-18.44,0-32-4.04-40.68-12.12c-4.84-4.56-7.681-9.52-8.52-14.88
			c-0.32-0.6-0.58-1.279-0.78-2.039c-0.48-1.36-0.74-2.86-0.781-4.5l0.061-2.041C401.21,397.91,401.37,395.45,401.69,393.41z
			 M383.27,340.91c1.2,0.28,2.28,0.74,3.24,1.38c0.56,0.32,1.1,0.721,1.62,1.2c0.24,0.12,0.44,0.3,0.6,0.54c-0.041,0-0.1,0-0.181,0
			c-0.359,0-0.699,0-1.02,0c-0.96-0.52-2.02-0.76-3.18-0.72c-1.2,0-2.3,0.28-3.3,0.84c-0.64,0-1.22,0-1.739,0
			c-0.12-0.16-0.18-0.34-0.18-0.54c-0.12-0.319-0.2-0.66-0.24-1.02c-0.08-0.16-0.12-0.34-0.12-0.541
			C380.09,341.69,381.59,341.311,383.27,340.91z M373.97,352.311c0.08,0.44,0.22,0.88,0.42,1.32c1.32,2.64,2.74,4.72,4.26,6.239
			c-1.8-0.439-3.279-1.26-4.439-2.46c-0.32-1.04-0.48-2.22-0.48-3.54C373.73,353.431,373.81,352.91,373.97,352.311
			c-0.16,0.6-0.24,1.12-0.24,1.56c0,1.32,0.16,2.5,0.48,3.54c-0.44-0.56-0.88-1.199-1.32-1.92c-1.08-1.8-1.62-3.56-1.62-5.279
			c0-1.521,0.201-2.841,0.6-3.961C372.31,347.61,373.01,349.631,373.97,352.311z M378.89,342.591h6.12
			c1.16,0.399,2.34,0.88,3.54,1.439c-1.2-0.56-2.379-1.04-3.54-1.439H378.89z M608.51,330.831l-10.5,0.539h-0.359
			c-1.04,0.2-1.92,0.58-2.641,1.141c0.681-1.32,1.601-2.36,2.761-3.12c2.4-1.641,5.26-1.9,8.579-0.78
			c0.24,0.08,0.501,0.141,0.781,0.18c0.799,0.4,1.56,0.82,2.279,1.26c0.76,0.44,1.46,0.94,2.1,1.5
			c-0.799-0.319-1.64-0.579-2.52-0.779L608.51,330.831z M599.99,353.211c-0.08-0.12-0.181-0.221-0.3-0.301
			c-0.36-0.64-0.739-1.3-1.141-1.979c2.601,1.84,5.46,2.819,8.581,2.939c0.119,0,0.279,0,0.479,0c3.841,0,6.642-0.56,8.4-1.68
			c0.641-0.52,1.16-1.1,1.561-1.74c0.04-0.08,0.08-0.18,0.12-0.3c0.119-0.32,0.2-0.68,0.24-1.08c0.04-0.399,0.04-0.819,0-1.26
			c0-0.24,0-0.521,0-0.84c-0.2-1.2-0.3-2.021-0.3-2.46c0.079-1.2,0.139-2.24,0.179-3.12c0.401,1.28,0.681,2.619,0.841,4.02
			c0,0.24,0.02,0.46,0.06,0.66c0.12,1,0.181,2.04,0.181,3.12c0,0.04,0,0.101,0,0.18c-0.08,1.721-0.781,3.521-2.101,5.4
			c-1.96,2.76-4.6,4.14-7.919,4.14C605.551,358.91,602.591,357.011,599.99,353.211z M608.99,330.771
			c-0.64-0.16-1.279-0.261-1.92-0.3c-0.92-0.16-1.86-0.261-2.82-0.301c-0.6-0.039-1.2-0.06-1.8-0.06c-0.8-0.04-1.58-0.04-2.341,0
			c0.761-0.04,1.541-0.04,2.341,0c0.6,0,1.2,0.021,1.8,0.06c0.96,0.04,1.9,0.141,2.82,0.301
			C607.711,330.51,608.351,330.61,608.99,330.771z"/>
		<path fill-rule="evenodd" clip-rule="evenodd" fill="#FFFFFF" d="M398.75,352.67c-0.08,2.24-0.58,3.681-1.5,4.32
			c-0.84,0.561-2.18,1-4.02,1.32c0.16-0.16,0.36-0.38,0.6-0.66c1.64-1.76,2.459-3.42,2.459-4.98c0-1.72-0.26-3.18-0.78-4.38
			c-0.56-0.439-1.16-0.88-1.8-1.319c-0.6-0.44-1.18-0.8-1.74-1.08c-1.16-0.721-2.3-1.34-3.42-1.86c1.121,0.521,2.26,1.14,3.42,1.86
			c0.56,0.28,1.14,0.64,1.74,1.08c0.64,0.439,1.24,0.88,1.8,1.319c0.52,1.2,0.78,2.66,0.78,4.38c0,1.561-0.819,3.221-2.459,4.98
			c-0.24,0.28-0.44,0.5-0.6,0.66c-1.88,0.32-4.2,0.52-6.96,0.6c0.68-0.08,1.3-0.3,1.86-0.66c1.24-0.64,1.86-1.739,1.86-3.3
			c0-5.8-2.1-8.779-6.3-8.939c-1.64-0.04-3.06,0.5-4.26,1.62c-1.32,1.2-1.98,2.76-1.98,4.68c0,1.76,0.24,3.02,0.72,3.78
			c1.08,1.8,3.38,2.739,6.9,2.819c-0.48,0-0.94,0-1.38,0c-3.76,0-6.12-1.46-7.08-4.38l-0.3-4.319c0-2.961,0.939-5.161,2.82-6.601
			c0,0.2,0.06,0.38,0.18,0.54c0.52,0,1.1,0,1.739,0c1-0.56,2.1-0.84,3.3-0.84c1.16-0.04,2.22,0.2,3.18,0.72c0.32,0,0.66,0,1.02,0
			c0.081,0,0.14,0,0.181,0h0.06c0.96,0.08,1.82,0.26,2.58,0.54c1.92,0.72,3.3,1.96,4.14,3.72c2.08,1.601,3.16,2.98,3.24,4.141
			C398.75,352.511,398.75,352.591,398.75,352.67z M388.73,344.03c-0.16-0.24-0.36-0.42-0.6-0.54c-0.52-0.479-1.06-0.88-1.62-1.2
			c-0.96-0.64-2.04-1.1-3.24-1.38c0.28-0.08,0.6-0.159,0.96-0.24c0.52-0.12,0.94-0.359,1.26-0.72c1.4,0.48,2.7,1.24,3.9,2.28
			c0.32,0.32,0.66,0.68,1.02,1.08c1.8,0.68,3.4,1.6,4.8,2.76c2.36,1.96,3.54,3.98,3.54,6.061c0,0.119,0,0.22,0,0.3
			c-0.08-1.16-1.16-2.54-3.24-4.141c-0.84-1.76-2.22-3-4.14-3.72c-0.76-0.28-1.62-0.46-2.58-0.54H388.73z M611.51,331.55
			c-0.64-0.56-1.34-1.06-2.1-1.5c-0.72-0.439-1.48-0.859-2.279-1.26c0.119,0,0.279,0.04,0.479,0.12c3.682,0.44,6.82,1.82,9.421,4.14
			c2.88,2.48,4.319,5.381,4.319,8.7c0,3.041-0.699,5.461-2.1,7.261c-0.119,0.079-0.24,0.199-0.359,0.359c0-0.079,0-0.14,0-0.18
			c0-1.08-0.061-2.12-0.181-3.12c-0.04-0.2-0.06-0.42-0.06-0.66c-0.16-1.4-0.439-2.739-0.841-4.02c0-0.36,0-0.64,0-0.841
			c-0.04-1.279-0.219-2.42-0.539-3.419c-0.16-0.561-0.36-1.081-0.6-1.561C615.67,333.73,613.951,332.391,611.51,331.55
			c2.441,0.841,4.16,2.181,5.161,4.021c0.239,0.479,0.439,1,0.6,1.561c0.32,0.999,0.499,2.14,0.539,3.419c0,0.201,0,0.48,0,0.841
			c-0.04,0.88-0.1,1.92-0.179,3.12c0,0.439,0.1,1.26,0.3,2.46c0,0.319,0,0.6,0,0.84c-1.521,3.88-5.12,5.899-10.8,6.06
			c-3.121-0.12-5.98-1.1-8.581-2.939c-0.359-0.24-0.659-0.48-0.899-0.72c-0.92-0.721-1.68-1.48-2.279-2.28
			c-1.721-2.08-2.641-4.44-2.762-7.08c0.121-3.88,1.48-6.761,4.081-8.64c0.399-0.36,0.84-0.641,1.319-0.841l10.5-0.539
			c1.561,0.399,3.02,1.06,4.381,1.979C612.451,332.331,611.99,331.91,611.51,331.55z M598.55,350.931
			c0.401,0.68,0.78,1.34,1.141,1.979c0.119,0.08,0.22,0.181,0.3,0.301c-0.399-0.201-0.78-0.46-1.141-0.78
			c-1.999-0.88-3.54-2.26-4.619-4.141c-1.08-1.84-1.621-4.04-1.621-6.6c0-0.28,0-0.561,0-0.84c0.121,2.64,1.041,5,2.762,7.08
			c0.6,0.8,1.359,1.56,2.279,2.28C597.891,350.45,598.19,350.69,598.55,350.931z M615.171,342.05c0-2.6-0.941-4.739-2.821-6.419
			c-1.6-1.36-3.6-2.101-6-2.221c-2.399-0.08-4.398,0.561-6,1.921c-1.8,1.56-2.699,3.68-2.699,6.359c0,1.399,0.2,2.56,0.6,3.479
			c0.6,1.121,1.641,2.36,3.121,3.721h8.699C613.471,348.891,615.171,346.61,615.171,342.05z"/>
		<path fill-rule="evenodd" clip-rule="evenodd" d="M386.27,358.91c-0.24,0-0.46,0-0.66,0c-0.2,0-0.38,0-0.54,0
			c-3.52-0.08-5.82-1.02-6.9-2.819c-0.479-0.761-0.72-2.021-0.72-3.78c0-1.92,0.66-3.479,1.98-4.68c1.2-1.12,2.62-1.66,4.26-1.62
			c4.2,0.16,6.3,3.14,6.3,8.939c0,1.561-0.62,2.66-1.86,3.3C387.57,358.61,386.95,358.83,386.27,358.91z M615.171,342.05
			c0,4.561-1.7,6.841-5.101,6.841h-8.699c-1.48-1.36-2.521-2.6-3.121-3.721c-0.399-0.92-0.6-2.08-0.6-3.479
			c0-2.68,0.899-4.8,2.699-6.359c1.602-1.36,3.601-2.001,6-1.921c2.4,0.12,4.4,0.86,6,2.221
			C614.229,337.311,615.171,339.45,615.171,342.05z"/>
		
			<path fill-rule="evenodd" clip-rule="evenodd" fill="none" stroke="#511C00" stroke-width="4" stroke-linecap="round" stroke-linejoin="round" stroke-miterlimit="3" d="
			M501.29,371.391c-2.88,5.56-10.2,8.6-21.96,9.12c-4.04,0.12-9.7,0-16.98-0.36c-10.04-0.48-16.04-0.72-18-0.72
			c-12.319-0.32-21.899,0.74-28.739,3.18c-1.44,0.48-2.74,1-3.9,1.56c-4.4,2.161-7.74,5.24-10.02,9.24c-2.8,4.6-4.2,10.4-4.2,17.4
			c0,10.2,6.26,17.899,18.78,23.1c10.08,4.16,22.38,6.24,36.9,6.24c13.04,0,22.641-1.439,28.8-4.319
			c1.521-0.721,3.56-1.74,6.12-3.061c2.32-0.88,5.061-1.32,8.22-1.32 M393.23,358.311c0.16-0.16,0.36-0.38,0.6-0.66
			c1.64-1.76,2.459-3.42,2.459-4.98c0-1.72-0.26-3.18-0.78-4.38c-0.56-0.439-1.16-0.88-1.8-1.319c-0.6-0.44-1.18-0.8-1.74-1.08
			c-1.16-0.721-2.3-1.34-3.42-1.86c-0.359,0-0.699,0-1.02,0 M381.05,344.15c-0.64,0-1.22,0-1.739,0 M398.75,352.431
			c0,0.08,0,0.16,0,0.239c0,3.201-1.26,5.681-3.78,7.44c-2.28,1.68-5.4,2.521-9.36,2.521c-3.68,0-6.38-0.4-8.1-1.2
			c-1.6-0.88-2.7-2.22-3.3-4.021c-0.32-1.04-0.48-2.22-0.48-3.54c0-0.439,0.08-0.96,0.24-1.56c0.16-1,0.5-2.26,1.02-3.78
			c0.88-2.64,1.32-4.62,1.32-5.939h2.58h6.12c1.16,0.399,2.34,0.88,3.54,1.439 M398.75,352.431c-0.08-1.16-1.16-2.54-3.24-4.141
			c-0.84-1.76-2.22-3-4.14-3.72c-0.76-0.28-1.62-0.46-2.58-0.54h-0.06c-0.041,0-0.1,0-0.181,0 M388.73,359.99
			c0.48,0.08,0.9,0.12,1.26,0.12c0.88,0,1.96-0.6,3.24-1.8 M617.81,341.391c0-0.36,0-0.64,0-0.841
			c-0.04-1.279-0.219-2.42-0.539-3.419c-0.16-0.561-0.36-1.081-0.6-1.561c-1.001-1.84-2.72-3.18-5.161-4.021
			c-0.799-0.319-1.64-0.579-2.52-0.779l-0.48,0.061l-10.5,0.539h-0.359c-1.04,0.2-1.92,0.58-2.641,1.141 M592.609,340.851
			c0.121,2.64,1.041,5,2.762,7.08c0.6,0.8,1.359,1.56,2.279,2.28c0.24,0.239,0.54,0.479,0.899,0.72
			c2.601,1.84,5.46,2.819,8.581,2.939c0.119,0,0.279,0,0.479,0c3.841,0,6.642-0.56,8.4-1.68c0.641-0.52,1.16-1.1,1.561-1.74
			c0.04-0.08,0.08-0.18,0.12-0.3c0.119-0.32,0.2-0.68,0.24-1.08c0.04-0.399,0.04-0.819,0-1.26c0-0.24,0-0.521,0-0.84
			c-0.2-1.2-0.3-2.021-0.3-2.46c0.079-1.2,0.139-2.24,0.179-3.12 M592.609,340.851c0-0.2,0-0.46,0-0.78
			c0-1.96,0.141-3.42,0.421-4.38c0.36-1.36,1.02-2.42,1.979-3.18 M608.99,330.771c-0.64-0.16-1.279-0.261-1.92-0.3
			c-0.92-0.16-1.86-0.261-2.82-0.301c-0.6-0.039-1.2-0.06-1.8-0.06c-0.8-0.04-1.58-0.04-2.341,0 M389.99,493.971
			c19.6,11.279,35.46,18.4,47.58,21.359c10,2.439,25.819,3.66,47.46,3.66c30.04,0,57.021-10.5,80.94-31.5
			c7.439-6.52,14.74-14.26,21.9-23.22c3.6-4.521,7.239-9.22,10.919-14.101"/>
	</g>
</g>
</svg>
