<?xml version="1.0" encoding="utf-8"?>
<!-- Generator: Adobe Illustrator 16.0.0, SVG Export Plug-In . SVG Version: 6.00 Build 0)  -->
<!DOCTYPE svg PUBLIC "-//W3C//DTD SVG 1.1//EN" "http://www.w3.org/Graphics/SVG/1.1/DTD/svg11.dtd">
<svg version="1.1" id="Layer_4" xmlns="http://www.w3.org/2000/svg" xmlns:xlink="http://www.w3.org/1999/xlink" x="0px" y="0px"
	 width="1000px" height="1000px" viewBox="0 0 1000 1000" enable-background="new 0 0 1000 1000" xml:space="preserve">
<g>
	<path fill-rule="evenodd" clip-rule="evenodd" fill="#FFFF33" d="M711.628,487.226c2.96,7.68,4.479,14.939,4.56,21.78
		c0,5.72-1.141,11.479-3.42,17.279c-0.041,0.12-0.08,0.28-0.12,0.48c13.08,4.16,19.8,6.24,20.159,6.24
		c5.161-3.08,9.86-4.62,14.101-4.62c10.28,0,16.78,4.439,19.5,13.32c1.36,4.439,1.66,8.88,0.899,13.319l2.7,0.061
		c2.241,0.159,4.7,0.839,7.381,2.039c2.601,1.24,3.78,4.12,3.54,8.641c-0.24,4.52,2.899,7.8,9.42,9.84
		c6.48,2,11.54,5.16,15.18,9.479c3.479,4.4,4.561,9.7,3.24,15.9c-0.48,2.521-7.8,4.3-21.961,5.34l-20.938,0.78
		c-13.562,1.24-23.761,0.239-30.601-3l-3.6,0.96l-0.6,0.06c-6.601,0.4-10.901,0.24-12.9-0.479c-3.121-1.08-5.12-2.24-6-3.48
		c-4.16,3.64-7.94,6.021-11.34,7.141c-3.401,1.08-8.621,0.119-15.66-2.881c-3.24,0.88-16.621,2.061-40.141,3.54
		c-27.721,1.681-54.74,2.62-81.06,2.82c-24.4,0.16-51.24-0.86-80.521-3.061c-24.64-2.199-37.479-3.3-38.52-3.3
		c-1.32,1.561-2.96,3.12-4.92,4.681c-3.96,3.08-8.98,4.619-15.061,4.619c-9.16,0-16.459-2.459-21.899-7.38
		c-1.641-1.52-3.061-3.239-4.26-5.159l-1.561-2.221c-6.96,0-12.7,0.48-17.22,1.44c-4.64,0.88-11.521,1.28-20.641,1.2
		c-9.199-0.28-16.02-2.96-20.459-8.04c-1.761,1.6-5.001,3.3-9.721,5.1c-4.72,1.761-11.7,2.58-20.94,2.46
		c-9.319-0.08-16.299-1.96-20.939-5.64c-4.72-3.64-10.52-5.46-17.399-5.46c-28.521,0-45.801-0.4-51.841-1.2
		c-6.12-0.76-10.359-2.479-12.72-5.16c-2.44-2.64-2.2-8.159,0.72-16.56c2.84-8.44,8.801-12.66,17.88-12.66
		c0.601,0,2.061,0.5,4.381,1.5c2.84,1.12,4.919,2.32,6.239,3.6h0.9c-1.56-0.64-2.76-2.119-3.601-4.439
		c-0.72-1.8-1.079-3.72-1.079-5.76c0-6.92,2.579-11.8,7.74-14.64c3-1.601,6.379-2.501,10.14-2.7c4.52-0.08,8.699,1.06,12.54,3.419
		c-0.04-1.239,0.479-2.499,1.56-3.779c1.04-1.16,3.5-3.28,7.38-6.36c7.76-6.2,15.66-8.9,23.7-8.1c1.16-0.28,2.28-0.46,3.36-0.54
		c-0.24-3.84,0.319-8.3,1.68-13.38c0.04-0.08,0.06-0.18,0.06-0.3c1.4-5.24,5.62-9.7,12.66-13.38c6.92-3.721,13.08-5.58,18.48-5.58
		c2.2-0.041,4.1-0.381,5.7-1.021c0.76-0.36,1.319-0.7,1.68-1.02l1.8-2.521c1.601-1.84,3.58-3.54,5.94-5.1
		c3.999-3.601,9.28-5.4,15.84-5.4c5.359,0,12.04,0.72,20.04,2.16c4.479,0.88,7.64,2.74,9.479,5.58v-0.3l0.18-0.18
		c1.04-5.48,4.761-6.841,11.161-4.081c0.159-0.04,0.58-2.359,1.26-6.96c0.68-4.84,1.16-7.6,1.439-8.279
		c1.72-3.88,2.92-6.36,3.601-7.44c3.359-5.36,5.859-9.04,7.5-11.04c6.479-7.88,14.479-12.021,24-12.42c1.68-0.04,3.42,0,5.22,0.12
		c7.96-11.24,16.18-19.66,24.66-25.26c8.399-5.64,24.52-8.36,48.359-8.16c23.72,0.12,41.7,4.66,53.94,13.62
		c12.119,9.04,19.76,20.3,22.919,33.78l0.841,0.479c0.8,0.28,1.921-0.06,3.359-1.021c1.44-1.04,4.301-1.979,8.581-2.819
		c4.36-0.88,8.86-1.04,13.5-0.48c4.6,0.44,9.3,1.44,14.1,3c4.681,1.48,8.86,6.94,12.54,16.38c2.44,6.16,3.54,10.681,3.3,13.561
		c2.32-3.681,5.16-5.86,8.52-6.54c3.36-0.64,7.88-1,13.561-1.08c5.68-0.12,12.78,2.02,21.3,6.42
		C702.928,473.386,708.668,479.466,711.628,487.226z M651.027,470.186c-0.6,0.92-1.08,1.94-1.439,3.06
		C650.388,472.686,650.867,471.666,651.027,470.186z M173.668,575.006c2.84,1.759,4.26,3.979,4.26,6.659c0,1.72-0.94,3.5-2.82,5.341
		c-2.64,2.56-6.24,3.839-10.8,3.839c-5.16,0-8.96-1.5-11.399-4.5c-1.48-1.76-2.221-3.399-2.221-4.92c0-3.16,1.4-5.56,4.2-7.199
		c2.56-1.479,5.7-2.101,9.42-1.86C167.947,572.525,171.067,573.405,173.668,575.006z"/>
	<g>
		<path fill-rule="evenodd" clip-rule="evenodd" fill="#FFFF33" d="M651.027,462.206c-0.16,1.479-0.64,2.499-1.439,3.06
			C649.947,464.146,650.428,463.126,651.027,462.206z M390.747,469.285l-0.18,0.181v0.3c-0.999-2.48-1.22-3.7-0.659-3.66
			C390.708,466.146,390.987,467.205,390.747,469.285z"/>
		
			<path fill-rule="evenodd" clip-rule="evenodd" fill="none" stroke="#FF9900" stroke-width="6" stroke-linecap="round" stroke-linejoin="round" stroke-miterlimit="3" d="
			M390.747,469.285c1.04-5.52,4.761-6.899,11.161-4.14c0.159-0.04,0.58-2.36,1.26-6.96c0.68-4.88,1.16-7.66,1.439-8.34
			c1.72-3.92,2.92-6.421,3.601-7.5c3.359-5.4,5.859-9.1,7.5-11.101c6.479-7.92,14.479-12.079,24-12.479c1.68-0.04,3.42,0,5.22,0.12
			c7.96-11.32,16.18-19.78,24.66-25.38c8.399-5.681,24.52-8.421,48.359-8.221c23.72,0.12,41.7,4.681,53.94,13.681
			c12.119,9.08,19.76,20.399,22.919,33.959l0.841,0.48c0.8,0.28,1.921-0.06,3.359-1.02c1.44-1.04,4.301-1.98,8.581-2.82
			c4.36-0.88,8.86-1.04,13.5-0.479c4.6,0.439,9.3,1.439,14.1,3c4.681,1.479,8.86,6.979,12.54,16.5c2.44,6.199,3.54,10.739,3.3,13.62
			c2.32-3.721,5.16-5.921,8.52-6.601c3.36-0.641,7.88-1,13.561-1.08c5.68-0.12,12.78,2.04,21.3,6.48
			c8.521,4.439,14.261,10.56,17.221,18.359c2.96,7.72,4.479,15.021,4.56,21.9c0,5.72-1.141,11.5-3.42,17.34
			c-0.041,0.12-0.08,0.279-0.12,0.48c13.08,4.199,19.8,6.3,20.159,6.3c5.161-3.12,9.86-4.68,14.101-4.68
			c10.28,0,16.78,4.479,19.5,13.439c1.36,4.44,1.66,8.9,0.899,13.38l2.7,0.061c2.241,0.159,4.7,0.839,7.381,2.039
			c2.601,1.24,3.78,4.141,3.54,8.7c-0.24,4.561,2.899,7.86,9.42,9.9c6.48,2,11.54,5.18,15.18,9.54
			c3.479,4.399,4.561,9.72,3.24,15.959c-0.48,2.561-7.8,4.36-21.961,5.4l-20.938,0.78c-13.562,1.24-23.761,0.24-30.601-3l-3.6,0.96
			l-0.6,0.06c-6.601,0.4-10.901,0.24-12.9-0.479c-3.121-1.08-5.12-2.26-6-3.54c-4.16,3.68-7.94,6.08-11.34,7.2
			c-3.401,1.08-8.621,0.119-15.66-2.881c-3.24,0.881-16.621,2.061-40.141,3.541c-27.721,1.68-54.74,2.619-81.06,2.819
			c-24.4,0.16-51.24-0.859-80.521-3.06c-24.64-2.2-37.479-3.301-38.52-3.301c-1.32,1.561-2.96,3.12-4.92,4.681
			c-3.96,3.12-8.98,4.68-15.061,4.68c-9.16,0-16.459-2.479-21.899-7.439c-1.641-1.521-3.061-3.261-4.26-5.221l-1.561-2.22
			c-6.96,0-12.7,0.48-17.22,1.44c-4.64,0.92-11.521,1.319-20.641,1.199c-9.199-0.279-16.02-2.96-20.459-8.039
			c-1.761,1.6-5.001,3.3-9.721,5.1c-4.72,1.76-11.7,2.58-20.94,2.46c-9.319-0.08-16.299-1.96-20.939-5.641
			c-4.72-3.68-10.52-5.52-17.399-5.52c-28.521,0-45.801-0.399-51.841-1.199c-6.12-0.761-10.359-2.48-12.72-5.161
			c-2.44-2.68-2.2-8.239,0.72-16.68c2.84-8.479,8.801-12.72,17.88-12.72c0.601,0,2.061,0.5,4.381,1.5
			c2.84,1.12,4.919,2.34,6.239,3.66h0.9c-1.56-0.68-2.76-2.18-3.601-4.5c-0.72-1.8-1.079-3.72-1.079-5.76
			c0-6.96,2.579-11.88,7.74-14.76c3-1.601,6.379-2.501,10.14-2.7c4.52-0.08,8.699,1.06,12.54,3.42c-0.04-1.24,0.479-2.5,1.56-3.78
			c1.04-1.16,3.5-3.3,7.38-6.42c7.76-6.24,15.66-8.94,23.7-8.1c1.16-0.32,2.28-0.521,3.36-0.601c-0.24-3.84,0.319-8.32,1.68-13.439
			c0.04-0.081,0.06-0.181,0.06-0.301c1.4-5.279,5.62-9.76,12.66-13.439c6.92-3.761,13.08-5.64,18.48-5.64
			c2.2-0.04,4.1-0.381,5.7-1.021c0.76-0.359,1.319-0.7,1.68-1.021l1.8-2.52c1.601-1.84,3.58-3.56,5.94-5.16
			c3.999-3.6,9.28-5.399,15.84-5.399c5.359,0,12.04,0.72,20.04,2.159c4.479,0.88,7.64,2.761,9.479,5.641
			c-0.999-2.48-1.22-3.7-0.659-3.66C390.708,466.146,390.987,467.205,390.747,469.285z M390.567,469.766v-0.3l0.18-0.181
			 M651.027,462.206c-0.6,0.92-1.08,1.939-1.439,3.06C650.388,464.705,650.867,463.686,651.027,462.206z M177.928,575.665
			c0,1.72-0.94,3.5-2.82,5.341c-2.64,2.56-6.24,3.839-10.8,3.839c-5.16,0-8.96-1.5-11.399-4.5c-1.48-1.76-2.221-3.399-2.221-4.92
			c0-3.159,1.4-5.56,4.2-7.199c2.56-1.479,5.7-2.101,9.42-1.86c3.64,0.16,6.76,1.04,9.36,2.641
			C176.508,570.766,177.928,572.985,177.928,575.665z"/>
	</g>
	<path fill-rule="evenodd" clip-rule="evenodd" fill="#FFFFFF" d="M703.168,542.905c3.68,0.32,6.779,1.14,9.3,2.46
		c2.8,1.521,4.2,3.36,4.2,5.521c0,0.76-0.341,1.64-1.021,2.64c-0.96,1.359-2.22,2.04-3.779,2.04c-0.88,0-1.74-0.3-2.581-0.9
		c-0.68-0.6-1.061-0.899-1.14-0.899c-1.16-0.36-6.021-0.841-14.579-1.44c-1.321-0.119-2.36-0.76-3.121-1.92
		c-0.521-0.88-0.779-1.76-0.779-2.64c0-1.881,1.399-3.261,4.2-4.141C696.467,542.825,699.568,542.585,703.168,542.905z
		 M438.088,471.625c7.8-2.6,11.699-1.38,11.699,3.66c0,1.24-2.359,3.021-7.079,5.34c-4.8,2.36-8.54,3.54-11.221,3.54
		c-2.08,0-3.56-0.779-4.439-2.34c-0.44-1.56-0.66-2.38-0.66-2.46c0-0.96,1.22-2.26,3.66-3.899
		C432.488,473.865,435.168,472.586,438.088,471.625z M592.047,474.206c2.281-0.921,5.021-1.4,8.221-1.44
		c3.28,0,6.04,0.479,8.279,1.44c2.48,1.04,3.721,2.52,3.721,4.439c0,1.16-0.4,2.22-1.199,3.18c-0.92,1.16-2.12,1.74-3.601,1.74
		c-9.28,0-15.181-0.681-17.7-2.04c-1-0.52-1.5-1.641-1.5-3.36C588.268,476.525,589.527,475.205,592.047,474.206z M579.868,493.886
		c0,1.96-1.281,3.439-3.841,4.439c-2.521,0.96-6.101,1.44-10.74,1.44c-2.119,0-3.6-0.78-4.439-2.341
		c-0.439-1.56-0.66-2.379-0.66-2.459c0-1.561,1.02-2.94,3.06-4.141c1.88-1.08,4.141-1.76,6.78-2.04
		c2.721-0.279,4.979-0.02,6.779,0.78C578.848,490.445,579.868,491.885,579.868,493.886z M415.588,570.086
		c4.16-0.641,7.6-0.661,10.32-0.061c3.12,0.72,4.68,2.141,4.68,4.26c0,1.36-0.74,2.58-2.221,3.66c-2.399,1.76-6.239,2.32-11.52,1.68
		c-0.279,0-1.899,0.38-4.86,1.141c-3,0.8-4.899,1.199-5.699,1.199c-2.4,0-4.061-0.779-4.98-2.34c-0.479-1.56-0.72-2.38-0.72-2.46
		c0-1.439,1.56-2.859,4.68-4.26C408.188,571.625,411.628,570.686,415.588,570.086z"/>
	
		<path fill-rule="evenodd" clip-rule="evenodd" fill="none" stroke="#FF9900" stroke-width="6" stroke-linecap="round" stroke-linejoin="round" stroke-miterlimit="3" d="
		M680.487,522.386c3.88,1.52,6.739,4.34,8.581,8.46c1.919,4.12,2.439,8.68,1.56,13.68c11.239,1.561,19.74,4.58,25.5,9.061
		c3.079,2.399,5.96,5.54,8.64,9.42 M684.147,598.225c-1-0.64-1.78-1.8-2.341-3.479c-0.399-1.6-0.619-2.439-0.659-2.521
		 M453.867,471.325h-11.939c-10.88,4.24-17.94,7.96-21.181,11.16c-5.439,5.28-8.02,13.46-7.739,24.54 M470.308,422.365
		c2.28-0.84,4.979-1.359,8.1-1.56c1.84-0.12,3.7-0.181,5.58-0.181c1.68,0,3.381,0.061,5.101,0.181
		c0.439,0.04,0.859,0.119,1.26,0.239 M621.928,484.105c-2-3.28-6.68-5.721-14.04-7.32c-4.92-1.12-9.461-1.68-13.62-1.68
		c-4.12,0-8.359,2.46-12.721,7.38c-3.88,4.32-5.879,8-6,11.04c0.28,0.08,0.541,0.2,0.781,0.36 M594.688,430.825
		c0,1.841,0.42,7.4,1.26,16.681 M261.208,532.165v6.9 M278.428,583.465c-4.24-5.119-5.92-10.22-5.04-15.3 M549.928,507.025
		c1.24-4,3.62-7.3,7.141-9.9c3.92-3.04,8.72-4.56,14.399-4.56c1.119,0,2.479,0.32,4.079,0.96 M377.908,525.386
		c2.84,0.52,5.439,1.62,7.8,3.3 M432.808,572.665c-4.04-3.08-8.42-4.06-13.14-2.939c-1.36,0.399-2.76,0.7-4.2,0.899
		c-2.32,0.44-4.56,1.32-6.721,2.641c-2.72,1.56-5.199,3.38-7.439,5.459c-1.44,1.28-2.68,2.761-3.72,4.44
		c-2.12,3.8-1.72,7.38,1.2,10.74 M445.588,596.485v-3.78 M308.968,510.925h-13.68"/>
	<g>
		<path fill-rule="evenodd" clip-rule="evenodd" fill="#AA6B04" d="M473.607,534.865v0.601c0.48,0.039,0.94,0.1,1.38,0.18
			c3.08,0.319,5.32,1.26,6.721,2.82c1.079,1.16,1.62,2.579,1.62,4.26c0,2.92-0.74,5.06-2.221,6.42c-1.359,1.2-3.38,1.8-6.061,1.8
			c-2.319,0-4.079-0.399-5.279-1.2c-1.84-1.32-2.76-3.779-2.76-7.38c0-2.08,0.539-3.6,1.62-4.56c1.64-1.08,3.06-2.061,4.26-2.94
			H473.607z M613.588,538.226c1.72,0.159,3.26,0.72,4.619,1.68c1.721,1.24,2.58,2.841,2.58,4.801c0,1.239-0.56,2.72-1.68,4.439
			c-1.68,2.52-4,3.779-6.96,3.779c-2.6,0-4.62-0.699-6.06-2.1c-1.4-1.319-2.101-3.08-2.101-5.28c0-1.8,0.399-3.26,1.2-4.38
			c0.88-1.119,2-1.68,3.359-1.68c0.121,0,0.801-0.22,2.041-0.66C612.027,538.385,613.027,538.186,613.588,538.226z"/>
		
			<path fill-rule="evenodd" clip-rule="evenodd" fill="none" stroke="#AA6B04" stroke-width="6" stroke-linecap="round" stroke-linejoin="round" stroke-miterlimit="3" d="
			M613.588,538.226c-0.561-0.04-1.561,0.159-3,0.6c-1.24,0.44-1.92,0.66-2.041,0.66c-1.359,0-2.479,0.561-3.359,1.68
			c-0.801,1.12-1.2,2.58-1.2,4.38c0,2.2,0.7,3.961,2.101,5.28c1.439,1.4,3.46,2.1,6.06,2.1c2.96,0,5.28-1.26,6.96-3.779
			c1.12-1.72,1.68-3.2,1.68-4.439c0-1.96-0.859-3.561-2.58-4.801C616.848,538.945,615.308,538.385,613.588,538.226z
			 M473.607,534.865h-0.72c-1.2,0.88-2.62,1.86-4.26,2.94c-1.081,0.96-1.62,2.479-1.62,4.56c0,3.601,0.92,6.06,2.76,7.38
			c1.2,0.801,2.96,1.2,5.279,1.2c2.681,0,4.701-0.6,6.061-1.8c1.48-1.36,2.221-3.5,2.221-6.42c0-1.681-0.541-3.1-1.62-4.26
			c-1.4-1.561-3.641-2.501-6.721-2.82c-0.439-0.08-0.899-0.141-1.38-0.18 M560.007,565.466c-1.52,2.88-5.46,4.899-11.819,6.06
			c-7.16,1.28-12.86,0-17.1-3.84 M474.987,535.646l-1.38-0.78"/>
	</g>
</g>
</svg>
